<svg width="495" height="313" viewBox="0 0 495 313" fill="none" xmlns="http://www.w3.org/2000/svg">
<path d="M25.5407 227.271L0 310.644H20.0977L24.707 295.108H49.6241L54.1114 310.644H75.9647L50.424 227.271H25.5407ZM29.7568 278.338L37.3486 252.411L44.8522 278.338H29.7568ZM123.976 272.611L123.054 271.696L124.897 270.93C127.266 269.857 129.413 268.351 131.228 266.49C132.991 264.66 134.428 262.423 135.411 259.895C136.393 257.366 136.875 254.513 136.875 251.354C136.875 246.989 136.088 243.22 134.536 240.129C132.995 237.038 130.672 234.405 127.799 232.49C124.986 230.605 121.563 229.236 117.618 228.436C113.822 227.67 109.565 227.284 104.942 227.284H78.8726V310.657H98.8687V278.081H99.4652C101.426 278.016 103.363 278.527 105.037 279.552C106.596 280.548 107.775 281.992 108.677 283.992L120.763 310.651H144.026L129.419 280.901C127.643 277.288 125.88 274.576 124.05 272.604L123.976 272.611ZM115.279 256.614C114.703 257.712 113.896 258.62 112.825 259.373C111.556 260.227 110.141 260.84 108.65 261.182C106.722 261.637 104.747 261.856 102.766 261.833H98.8687V244.21H103.261C107.836 244.21 111.239 244.928 113.429 246.345C115.286 247.578 116.187 249.734 116.187 252.716C116.187 254.194 115.916 255.441 115.333 256.539L115.279 256.614ZM202.611 237.18C199.242 233.791 194.999 231.263 189.99 229.724C185.109 228.152 179.368 227.352 172.908 227.352H146.473V310.725H169.492C176.921 310.725 183.415 309.709 188.81 307.716C194.28 305.696 198.842 302.768 202.38 298.999C205.919 295.23 208.481 290.661 210.196 285.361C211.823 280.182 212.636 274.353 212.636 268.042C212.636 261.162 211.823 255.129 210.196 250.107C208.535 244.955 205.993 240.637 202.625 237.255L202.611 237.18ZM186.262 287.848C182.791 291.712 177.755 293.576 170.875 293.576H166.469V244.352H171.925C175.789 244.352 179.016 244.894 181.537 245.979C183.844 246.914 185.848 248.469 187.326 250.473C188.804 252.506 189.874 255.055 190.512 258.044C191.176 261.21 191.528 264.877 191.528 268.944C191.528 277.62 189.766 283.992 186.268 287.923L186.262 287.848ZM260.803 280.311C260.803 283.185 260.532 285.632 260.01 287.591C259.522 289.421 258.79 290.98 257.861 292.024C256.932 293.068 255.862 293.854 254.499 294.328C253.021 294.857 251.123 295.122 248.873 295.122C246.487 295.122 244.515 294.817 243.017 294.213C241.642 293.674 240.426 292.797 239.478 291.665C238.48 290.427 237.79 288.971 237.465 287.415C237 285.275 236.779 283.09 236.808 280.901V227.264H216.812V281.802C216.812 286.31 217.367 290.445 218.465 294.098C219.618 297.894 221.489 301.168 224.064 303.838C226.64 306.509 230.009 308.57 234.083 309.959C238.041 311.315 242.895 312.013 248.297 312.013C253.191 312.013 257.685 311.322 261.65 309.959C265.697 308.57 269.188 306.468 272.021 303.703C274.854 300.937 277.057 297.453 278.562 293.352C280.04 289.326 280.799 284.541 280.799 279.335V227.264H260.803V280.304V280.311ZM291.014 244.04H308.956V293.746H291.014V310.637H347.138V293.746H329.196V244.04H347.138V227.284H291.014V244.054V244.04ZM402.856 274.787L380.508 227.284H357.869V310.657H376.489V262.247L398.959 310.657H421.476V227.284H402.788V274.787H402.856ZM486.135 237.14C480.305 229.717 471.548 225.956 460.126 225.956C455.246 225.956 450.583 226.823 446.278 228.531C441.887 230.279 437.962 233.022 434.809 236.543C431.556 240.136 429.048 244.677 427.218 250.141C425.421 255.536 424.506 262.003 424.506 269.364C424.506 282.968 427.401 293.549 433.115 300.815C438.944 308.258 447.702 312.033 459.123 312.033C463.863 312.06 468.565 311.186 472.978 309.458C477.343 307.722 481.2 305.031 484.501 301.446C487.802 297.86 490.263 293.312 492.093 287.848C493.882 282.46 494.804 275.986 494.804 268.625C494.804 254.987 491.91 244.386 486.196 237.133L486.135 237.14ZM472.985 280.521C472.416 283.598 471.521 286.195 470.328 288.235C469.196 290.18 467.799 291.604 466.057 292.586C464.315 293.569 462.16 294.064 459.632 294.064C454.636 294.064 451.159 292.207 448.99 288.37C446.617 284.168 445.397 277.552 445.397 268.686C445.397 264.524 445.695 260.789 446.292 257.583C446.861 254.513 447.763 251.923 448.969 249.883C449.981 248.071 451.46 246.563 453.253 245.518C454.961 244.542 457.117 244.047 459.638 244.047C464.675 244.047 468.165 245.904 470.314 249.72C472.687 253.923 473.88 260.552 473.88 269.411C473.88 273.587 473.581 277.322 472.985 280.514V280.521ZM343.519 192.443C317.47 192.443 295.189 183.659 275.6 165.696C263.494 154.6 253.503 141.01 244.325 126.877C235.14 141.01 225.156 154.668 213.05 165.696C191.989 185.001 167.838 193.704 139.166 192.301C84.6274 192.064 40.3378 149.022 40.3378 96.1506C40.3378 43.1305 84.8714 0 139.627 0C169.587 0 194.802 9.91669 216.73 30.2991C227.264 40.0938 236.15 51.461 244.25 63.3502C252.357 51.461 261.25 40.1006 271.77 30.2991C293.691 9.96414 318.913 0 348.874 0C403.622 0 448.163 43.1305 448.163 96.1506C448.163 149.022 403.866 192.064 349.335 192.301C347.355 192.396 345.39 192.437 343.451 192.437L343.519 192.443ZM264.26 94.7881C275.125 112.412 285.679 128.829 298.517 140.596C313.023 153.882 328.301 159.352 347.999 158.308L348.88 158.281C384.914 158.281 414.224 130.374 414.224 96.0692C414.224 61.7641 384.907 33.8577 348.88 33.8577C327.61 33.8577 310.447 40.6022 294.891 55.0739C283.266 65.8853 273.675 79.747 264.185 94.7949L264.26 94.7881ZM139.674 33.7832C103.641 33.7832 74.3311 61.6963 74.3311 95.9947C74.3311 130.293 103.647 158.206 139.674 158.206L140.555 158.233C160.314 159.277 175.599 153.814 190.091 140.521C202.936 128.748 213.477 112.344 224.349 94.7136C214.873 79.6657 205.275 65.8108 193.657 54.9926C178.094 40.5141 160.938 33.7764 139.667 33.7764L139.674 33.7832Z" fill="#21D4FD"/>
<path d="M353.442 83.7393V65.3361H334.287V83.7393H315.822V102.8H334.226V121.406H353.381V102.868H371.784V83.8071H353.442V83.7393ZM112.134 83.5156H172.617V103.173H112.134V83.5156Z" fill="#21D4FD"/>
</svg>
