<svg width="418" height="500" viewBox="0 0 418 500" fill="none" xmlns="http://www.w3.org/2000/svg">
<path d="M308.56 349.965L314.62 356.025C302.648 368.15 288.651 378.092 273.26 385.405C253.189 394.875 231.284 399.825 209.091 399.904C186.898 399.984 164.958 395.191 144.82 385.865H144.77L144.57 385.765C144.33 385.665 144.09 385.555 143.86 385.435C128.49 378.109 114.514 368.16 102.56 356.035C82.4811 336.176 68.5309 310.966 62.3701 283.405C51.3701 234.665 64.7501 181.235 102.5 143.895C160.34 85.4251 256.78 85.4151 314.62 143.895L279.27 179.245C260.515 160.492 235.079 149.957 208.557 149.958C182.034 149.958 156.599 160.495 137.845 179.25C119.092 198.005 108.557 223.441 108.558 249.964C108.559 276.486 119.095 301.922 137.85 320.675C150.199 333.173 165.69 342.11 182.69 346.545L182.96 346.615C199.838 351.012 217.564 350.988 234.43 346.545C236.91 345.878 239.363 345.132 241.79 344.305L243.86 343.555L245.38 342.965C245.89 342.775 246.38 342.575 246.9 342.355L248.45 341.695C259.479 336.966 269.533 330.228 278.1 321.825L279.27 320.675L308.56 349.965Z" fill="url(#paint0_radial)"/>
<path d="M137.85 320.675L136.71 319.515C128.367 310.899 121.637 300.857 116.84 289.865L116.18 288.315C115.97 287.815 115.77 287.315 115.57 286.795C115.37 286.275 115.17 285.795 114.98 285.275C114.72 284.608 114.47 283.918 114.23 283.205C113.377 280.792 112.62 278.348 111.96 275.875L137.86 249.975L111.96 224.075L73.19 185.305C50.24 162.355 23 135.125 0.0200195 112.135C2.74669 108.008 5.60002 103.965 8.58002 100.005C15.6767 90.5528 23.4363 81.6169 31.8 73.265V73.265C40.1607 64.8783 49.1029 57.0923 58.56 49.965V49.965C92.1412 24.7061 131.575 8.36769 173.18 2.47498V2.47498C196.611 -0.824994 220.389 -0.824994 243.82 2.47498V2.47498C285.465 8.34223 324.942 24.6746 358.56 49.945V49.945C377.501 64.1704 394.335 81.0038 408.56 99.945V99.945C411.533 103.898 414.387 107.942 417.12 112.075L380.87 148.405C344.07 84.405 275.95 50.405 207.56 50.405C156.63 50.405 105.56 69.265 67.14 108.635L102.49 143.995L137.84 179.335L208.56 249.965L172.95 285.575L172.15 286.375L137.85 320.675Z" fill="url(#paint1_radial)"/>
<path d="M208.56 294.005C232.883 294.005 252.6 274.288 252.6 249.965C252.6 225.642 232.883 205.925 208.56 205.925C184.237 205.925 164.52 225.642 164.52 249.965C164.52 274.288 184.237 294.005 208.56 294.005Z" fill="url(#paint2_radial)"/>
<path d="M173.24 497.485C131.613 491.599 92.1574 475.257 58.56 449.985V449.985C39.6188 435.76 22.7854 418.926 8.56 399.985V399.985C5.58666 396.038 2.73333 391.995 0 387.855L43.1 344.755L73.2 314.655C74.82 318.048 76.5633 321.358 78.43 324.585C84.9246 335.908 92.8757 346.33 102.08 355.585L102.29 355.805L102.52 356.045L75.25 383.315L67.14 391.405C105.56 430.755 156.64 449.615 207.56 449.615C275.96 449.615 344.08 415.615 380.87 351.565L399.04 369.735L417.14 387.835C414.407 391.968 411.553 396.012 408.58 399.965C394.355 418.906 377.521 435.74 358.58 449.965V449.965C324.999 475.224 285.565 491.562 243.96 497.455V497.455C220.504 500.772 196.699 500.783 173.24 497.485V497.485Z" fill="url(#paint3_radial)"/>
<path d="M137.85 320.675L136.71 319.515C128.367 310.899 121.637 300.857 116.84 289.865L116.18 288.315C115.97 287.815 115.77 287.315 115.57 286.795C115.37 286.275 115.17 285.795 114.98 285.275C114.72 284.608 114.47 283.918 114.23 283.205C113.377 280.792 112.62 278.348 111.96 275.875L137.86 249.975L111.96 224.075L73.19 185.305C50.24 162.355 23 135.125 0.0200195 112.135C2.74669 108.008 5.60002 103.965 8.58002 100.005C15.6767 90.5528 23.4363 81.6169 31.8 73.265V73.265C40.1607 64.8783 49.1029 57.0923 58.56 49.965V49.965C92.1412 24.7061 131.575 8.36769 173.18 2.47498V2.47498C196.611 -0.824994 220.389 -0.824994 243.82 2.47498V2.47498C285.465 8.34223 324.942 24.6746 358.56 49.945V49.945C377.501 64.1704 394.335 81.0038 408.56 99.945V99.945C411.533 103.898 414.387 107.942 417.12 112.075L380.87 148.405C344.07 84.405 275.95 50.405 207.56 50.405C156.63 50.405 105.56 69.265 67.14 108.635L102.49 143.995L137.84 179.335L208.56 249.965L172.95 285.575L172.15 286.375L137.85 320.675Z" fill="url(#paint4_radial)"/>
<path d="M208.56 294.005C232.883 294.005 252.6 274.288 252.6 249.965C252.6 225.642 232.883 205.925 208.56 205.925C184.237 205.925 164.52 225.642 164.52 249.965C164.52 274.288 184.237 294.005 208.56 294.005Z" fill="url(#paint5_radial)"/>
<path opacity="0.4" d="M108.63 249.965H58.6301C58.5949 227.952 63.3731 206.197 72.6301 186.225V186.175L72.7301 185.975C72.9601 185.525 73.0901 185.295 73.0901 185.295L111.86 224.065C111.86 224.165 111.86 224.265 111.86 224.365C109.695 232.725 108.61 241.329 108.63 249.965Z" fill="url(#paint6_linear)"/>
<path opacity="0.4" d="M137.85 179.255L102.5 143.905C122.361 123.851 147.563 109.923 175.11 103.775L203.47 150.165C178.724 151.297 155.306 161.679 137.85 179.255V179.255Z" fill="url(#paint7_linear)"/>
<path opacity="0.4" d="M75.2301 383.295L43.0801 344.735L73.1801 314.635C74.7354 318.041 76.4815 321.356 78.4101 324.565C87.4101 339.615 99.6301 352.965 102.06 355.565L102.27 355.785L102.5 356.025L75.2301 383.295Z" fill="url(#paint8_linear)"/>
<path opacity="0.4" d="M137.85 320.675C137.29 320.225 119.35 305.675 111.96 275.875L136.78 251.055C144.903 249.842 153.131 249.48 161.33 249.975L172.15 286.405L137.85 320.675Z" fill="url(#paint9_linear)"/>
<defs>
<radialGradient id="paint0_radial" cx="0" cy="0" r="1" gradientUnits="userSpaceOnUse" gradientTransform="translate(256.88 254.005) scale(246.76)">
<stop stop-color="#B721FF"/>
<stop offset="1" stop-color="#21D4FD"/>
</radialGradient>
<radialGradient id="paint1_radial" cx="0" cy="0" r="1" gradientUnits="userSpaceOnUse" gradientTransform="translate(-159851 159369) rotate(90) scale(77597.3 59658.4)">
<stop stop-color="#B721FF"/>
<stop offset="1" stop-color="#21D4FD"/>
</radialGradient>
<radialGradient id="paint2_radial" cx="0" cy="0" r="1" gradientUnits="userSpaceOnUse" gradientTransform="translate(236.42 269.505) rotate(90) scale(130.49)">
<stop stop-color="#6028E4"/>
<stop offset="1" stop-color="#9E208E"/>
</radialGradient>
<radialGradient id="paint3_radial" cx="0" cy="0" r="1" gradientUnits="userSpaceOnUse" gradientTransform="translate(-83885.2 199663) rotate(90) scale(114743 50969.3)">
<stop stop-color="#B721FF"/>
<stop offset="1" stop-color="#21D4FD"/>
</radialGradient>
<radialGradient id="paint4_radial" cx="0" cy="0" r="1" gradientUnits="userSpaceOnUse" gradientTransform="translate(-144984 199644) rotate(90) scale(114732 88208.1)">
<stop stop-color="#B721FF"/>
<stop offset="1" stop-color="#21D4FD"/>
</radialGradient>
<radialGradient id="paint5_radial" cx="0" cy="0" r="1" gradientUnits="userSpaceOnUse" gradientTransform="translate(-39675.6 42378.9) rotate(90) scale(24228.2)">
<stop stop-color="#B721FF"/>
<stop offset="1" stop-color="#21D4FD"/>
</radialGradient>
<linearGradient id="paint6_linear" x1="107.16" y1="194.915" x2="75.4801" y2="239.195" gradientUnits="userSpaceOnUse">
<stop/>
<stop offset="1" stop-color="#21D4FD" stop-opacity="0"/>
</linearGradient>
<linearGradient id="paint7_linear" x1="40643" y1="44983.4" x2="37583.7" y2="40179.3" gradientUnits="userSpaceOnUse">
<stop/>
<stop offset="1" stop-color="#21D4FD" stop-opacity="0"/>
</linearGradient>
<linearGradient id="paint8_linear" x1="33069.9" y1="42669" x2="34147.9" y2="43775.4" gradientUnits="userSpaceOnUse">
<stop/>
<stop offset="1" stop-color="#21D4FD" stop-opacity="0"/>
</linearGradient>
<linearGradient id="paint9_linear" x1="112.69" y1="303.415" x2="143.65" y2="281.335" gradientUnits="userSpaceOnUse">
<stop/>
<stop offset="1" stop-color="#8164FC" stop-opacity="0.5"/>
</linearGradient>
</defs>
</svg>
