<svg id="Layer_1" data-name="Layer 1" xmlns="http://www.w3.org/2000/svg" xmlns:xlink="http://www.w3.org/1999/xlink" viewBox="0 0 1000 1000"><defs><style>.cls-1,.cls-6{fill:#fff;}.cls-2{fill:url(#New_Gradient_Swatch_1);}.cls-3{fill:url(#New_Gradient_Swatch_1-2);}.cls-4{fill:url(#New_Gradient_Swatch_1-3);}.cls-5{fill:url(#New_Gradient_Swatch_1-4);}.cls-6{opacity:0.4;}</style><radialGradient id="New_Gradient_Swatch_1" cx="347.45" cy="530.37" r="0.83" gradientUnits="userSpaceOnUse"><stop offset="0" stop-color="#b721ff"/><stop offset="1" stop-color="#21d4fd"/></radialGradient><radialGradient id="New_Gradient_Swatch_1-2" cx="350.47" cy="540.09" r="1.02" xlink:href="#New_Gradient_Swatch_1"/><radialGradient id="New_Gradient_Swatch_1-3" cx="386.08" cy="597.34" r="0.89" xlink:href="#New_Gradient_Swatch_1"/><radialGradient id="New_Gradient_Swatch_1-4" cx="461.89" cy="489.44" r="41.49" xlink:href="#New_Gradient_Swatch_1"/></defs><path class="cls-1" d="M649.66,643.31l9.3,9.34a225.11,225.11,0,0,1-63.64,45.14,233.27,233.27,0,0,1-197.63.71s-.05,0-.08,0a2.88,2.88,0,0,1-.31-.17,7.1,7.1,0,0,1-1.08-.51,225.07,225.07,0,0,1-63.64-45.14h0a225.67,225.67,0,0,1-39.34-52.27c-.59-1.11-1.19-2.21-1.78-3.31-.79-1.53-1.59-3.06-2.32-4.58-.6-1.16-1.16-2.32-1.7-3.51a228.37,228.37,0,0,1-16.6-48.09,233.43,233.43,0,0,1-5.72-51.45v0q0-3.15.09-6.28c.06-2,.14-4.11.25-6.14a4,4,0,0,1,0-.62c.09-1.76.23-3.51.37-5.27,0-.39.06-.79.08-1.18.15-1.81.32-3.62.51-5.46,0-.12,0-.23.06-.37.2-1.92.42-3.85.71-5.77a4.62,4.62,0,0,1,.05-.48c.26-2,.57-4.05.91-6.05.25-1.73.56-3.45.88-5.15q1.35-7.22,3.14-14.34c.42-1.73.9-3.48,1.38-5.21s1-3.65,1.59-5.46c.16-.62.36-1.24.59-1.89.34-1.16.71-2.29,1.1-3.42.54-1.67,1.11-3.34,1.73-5,.37-1.1.76-2.2,1.19-3.31q3.13-8.44,6.95-16.63a1,1,0,0,1,.12-.23.87.87,0,0,1,.08-.14l.23-.45a2.51,2.51,0,0,1,.28-.65,225.13,225.13,0,0,1,45.14-63.64c1.39-1.39,2.78-2.74,4.16-4.1.06,0,.09-.09.14-.14,1.19-1.14,2.41-2.27,3.62-3.4.37-.34.77-.68,1.16-1,1.28-1.14,2.55-2.27,3.82-3.37,1.56-1.33,3.11-2.63,4.67-3.93q1.78-1.49,3.62-2.89c1.27-1,2.52-2,3.82-2.91,1.07-.82,2.18-1.64,3.28-2.43,2.23-1.62,4.5-3.2,6.79-4.73,1.1-.73,2.2-1.44,3.31-2.15s2.26-1.47,3.42-2.17q3.43-2.13,7-4.13c1.16-.65,2.32-1.31,3.5-2s2.35-1.27,3.54-1.89,2.38-1.25,3.59-1.84,2.38-1.19,3.59-1.75,2.41-1.16,3.63-1.7,2.43-1.1,3.64-1.64,2.46-1.05,3.68-1.56c3.68-1.55,7.41-3,11.15-4.3,1.27-.45,2.51-.87,3.76-1.3s2.51-.85,3.79-1.24c2.51-.82,5.06-1.59,7.61-2.26,1.27-.37,2.54-.71,3.81-1.05q3.83-1,7.7-1.87c75-16.94,157.21,3.65,214.65,61.75l-54.39,54.39c-29.61-30-69.21-45-108.81-45-2.63,0-5.23,0-7.84.2-1.16.05-2.32.14-3.45.22-4.61.31-9.22.85-13.8,1.61-1.16.17-2.29.37-3.42.6-.82.14-1.64.31-2.46.48-1.45.28-2.89.59-4.33.93-1.08.23-2.12.48-3.17.77-1.84.48-3.7,1-5.54,1.52-.74.2-1.47.43-2.21.65s-1.67.54-2.52.82c-2,.63-4,1.33-5.91,2.07l-1.3.51c-4.16,1.58-8.23,3.36-12.25,5.34-1,.54-2.09,1.05-3.14,1.62s-2.06,1.07-3.11,1.67c-.76.39-1.5.82-2.26,1.27-2.89,1.64-5.71,3.39-8.49,5.23-.87.57-1.72,1.16-2.6,1.78a146.19,146.19,0,0,0-13.72,10.81c-.68.56-1.33,1.16-2,1.78-1.81,1.64-3.56,3.34-5.29,5.09a150.9,150.9,0,0,0-39.82,69c-.17.71-.34,1.38-.51,2.09-.17.51-.28,1-.4,1.53-.22,1-.45,2-.68,3-.53,2.43-1,4.86-1.41,7.32-.2,1.22-.4,2.43-.57,3.68s-.33,2.46-.48,3.68c-.31,2.57-.56,5.14-.73,7.72,0,.59-.09,1.21-.11,1.84-.06,1-.12,2.12-.15,3.19-.08,1.92-.11,3.82-.11,5.74,0,2.63.06,5.24.2,7.84a155.24,155.24,0,0,0,5,32c.17.76.36,1.5.59,2.26.65,2.44,1.39,4.84,2.24,7.22.28.9.59,1.83.93,2.74.25.76.54,1.53.82,2.29,0,0,0,.06,0,.09.28.76.56,1.49.87,2.26l.94,2.32c.34.82.68,1.61,1,2.4.53,1.22,1.07,2.41,1.61,3.62a147.8,147.8,0,0,0,26.59,39.49c.79.85,1.58,1.7,2.37,2.52.6.59,1.19,1.18,1.78,1.78a150.27,150.27,0,0,0,69,39.82,2.11,2.11,0,0,0,.43.12,156.55,156.55,0,0,0,79.19-.12c3.82-1,7.58-2.15,11.32-3.45,1.07-.37,2.12-.76,3.19-1.16.8-.28,1.56-.59,2.32-.9s1.59-.6,2.35-.94l2.41-1A149.51,149.51,0,0,0,602.79,600c.59-.59,1.19-1.16,1.78-1.78Z"/><path class="cls-2" d="M347.18,529.24c.17.76.36,1.5.59,2.26-.25-.73-.45-1.47-.65-2.2Z"/><path class="cls-3" d="M350,538.72c.28.9.59,1.83.93,2.74a7.48,7.48,0,0,1-.34-.91C350.37,539.93,350.18,539.34,350,538.72Z"/><path class="cls-4" d="M385.19,596.45c.6.59,1.19,1.18,1.78,1.78h0C386.35,597.63,385.79,597,385.19,596.45Z"/><path class="cls-5" d="M447.84,441.53l47.92,47.91-47.92,47.92a67.83,67.83,0,0,1,0-95.83Z"/><path class="cls-1" d="M441.42,870.31l-.06,0,0,0A382.74,382.74,0,0,1,265,797.22v0h0A386.33,386.33,0,0,1,188,720.3v0h0q-6.87-9.12-13.18-18.66l66.32-66.33c15.95-15.94,31.7-31.68,46.32-46.31q3.74,7.81,8.05,15.28a229.94,229.94,0,0,0,36.39,47.7c.12.14.23.25.32.34l.36.37-42,42-12.45,12.45c59.12,60.58,137.72,89.6,216.07,89.6,105.25,0,210.07-52.35,266.69-150.88,6.57,6.59,17.28,17.28,28,28l27.86,27.86q-6.3,9.52-13.18,18.66h0v0a386.6,386.6,0,0,1-76.89,76.89h0v0A382.74,382.74,0,0,1,550.21,870.3l0,0,0,0A389.56,389.56,0,0,1,441.42,870.31Z"/><path class="cls-1" d="M347.18,529.24c.17.76.36,1.5.59,2.26-.25-.73-.45-1.47-.65-2.2Z"/><path class="cls-1" d="M350,538.72c.28.9.59,1.83.93,2.74a7.48,7.48,0,0,1-.34-.91C350.37,539.93,350.18,539.34,350,538.72Z"/><path class="cls-1" d="M385.19,596.45c.6.59,1.19,1.18,1.78,1.78h0C386.35,597.63,385.79,597,385.19,596.45Z"/><path class="cls-1" d="M447.84,441.53l47.92,47.91-47.92,47.92a67.83,67.83,0,0,1,0-95.83Z"/><path class="cls-1" d="M816.74,277.28l-55.84,55.8c-56.62-98.51-161.42-150.87-266.67-150.87-78.38,0-157,29-216.07,89.61l54.39,54.42L387,380.63a150.9,150.9,0,0,0-39.82,69l0,0-59.68-59.65a.1.1,0,0,0,0-.06c-35.33-35.33-77.25-77.22-112.6-112.6,4.21-6.34,8.6-12.59,13.18-18.67h0v0a382.4,382.4,0,0,1,35.72-41.15v0a390.09,390.09,0,0,1,41.16-35.73H265v0a382.47,382.47,0,0,1,176.39-73.06l0,0,.05,0a390.32,390.32,0,0,1,108.7,0l.06,0,0,0a382.39,382.39,0,0,1,176.38,73.06v0h0a386,386,0,0,1,76.91,76.91v0h0C808.14,264.69,812.52,270.94,816.74,277.28Z"/><path class="cls-1" d="M563.53,489.44a67.76,67.76,0,1,1-67.77-67.77A67.76,67.76,0,0,1,563.53,489.44Z"/><path class="cls-6" d="M342,489.44H265.09a232.24,232.24,0,0,1,21.61-98.09s0,0,0-.07l.16-.31c.35-.69.55-1.05.55-1.05l59.66,59.66c0,.16-.05.31-.06.46A155.68,155.68,0,0,0,342,489.44Z"/><path class="cls-6" d="M387,380.63l-54.39-54.4A226.78,226.78,0,0,1,444.3,264.48l43.64,71.39A152.11,152.11,0,0,0,387,380.63Z"/><path class="cls-6" d="M290.61,694.6l-49.48-59.34c15.95-15.94,31.7-31.68,46.32-46.31a153.49,153.49,0,0,0,8.05,15.28c13.8,23.16,32.65,43.7,36.39,47.7.12.14.23.25.32.34l.36.37Z"/><path class="cls-6" d="M428,489.44a67.63,67.63,0,0,0,19.82,47.92l-8.09,8.09c-21.35,21.38-42.4,42.4-52.78,52.78-.59-.6-1.18-1.19-1.78-1.78-.79-.82-1.58-1.67-2.37-2.52a154.47,154.47,0,0,1-26.59-39.49c-.54-1.21-1.08-2.4-1.61-3.62-.34-.79-.68-1.58-1-2.4l-.94-2.32c-.31-.74-.59-1.5-.87-2.26,0,0,0-.06,0-.09-.28-.76-.57-1.53-.82-2.29-.34-.91-.65-1.84-.93-2.74-.85-2.38-1.59-4.78-2.24-7.22-.23-.76-.42-1.5-.59-2.26L387,489.44l-39.82-39.82a150.9,150.9,0,0,1,39.82-69c6.74,6.73,34.91,34.9,60.87,60.9A67.61,67.61,0,0,0,428,489.44Z"/><polygon class="cls-6" points="385.33 491.08 347.18 529.24 385.31 491.08 385.33 491.08"/><path class="cls-6" d="M387,598.23h0c-.85-.71-28.46-23.14-39.83-68.93l.06-.06c.17.76.36,1.5.59,2.26.65,2.44,1.39,4.84,2.24,7.22.28.9.59,1.83.93,2.74.25.76.54,1.53.82,2.29,0,0,0,.06,0,.09.28.76.56,1.52.87,2.26l.94,2.32c.34.82.68,1.61,1,2.4.53,1.22,1.07,2.41,1.61,3.62a154.47,154.47,0,0,0,26.59,39.49c.79.85,1.58,1.7,2.37,2.52C385.79,597,386.38,597.63,387,598.23Z"/></svg>