<svg width="267" height="297" viewBox="0 0 267 297" fill="none" xmlns="http://www.w3.org/2000/svg">
<path opacity="0.4" d="M243.332 144.336C256.403 144.336 267 138.222 267 130.68C267 123.138 256.403 117.024 243.332 117.024C230.26 117.024 219.663 123.138 219.663 130.68C219.663 138.222 230.26 144.336 243.332 144.336Z" fill="#D6D8E5"/>
<path d="M247.071 8.31599C247.993 6.83099 255.05 5.85683 257.369 11.8265C258.249 14.0956 258.118 19.8812 258.855 23.5224C259.592 27.1636 261.322 29.2188 261.947 32.171C262.571 35.1232 261.554 40.0831 254.461 40.986C247.368 41.8889 241.869 39.3644 240.192 37.1012C238.516 34.8381 238.474 30.0148 240.222 27.425C241.97 24.8351 243.296 22.7324 243.254 19.3644L247.071 8.31599Z" fill="#3A2C6D"/>
<path d="M238.617 33.3294C238.617 33.3294 236.946 45.1143 240.103 53.5253C243.26 61.9364 242.392 51.3632 242.392 51.3632L241.631 48.8624C241.631 48.8624 240.995 39.204 241.256 36.828C241.518 34.452 241.459 32.4324 241.631 32.2423C241.803 32.0523 241.001 31.678 240.668 31.6483C240.335 31.6186 238.617 33.3294 238.617 33.3294Z" fill="#FFCEA9"/>
<path d="M251.732 7.30028C251.732 7.30028 246.417 5.7737 243.195 8.64272C242.132 9.62021 241.358 10.8705 240.957 12.2574C240.557 13.6442 240.545 15.1143 240.924 16.5073C241.352 18.1824 242.214 20.4693 243.545 20.594C244.877 20.7187 251.732 7.30028 251.732 7.30028Z" fill="#3A2C6D"/>
<path d="M253.76 21.7761C253.76 21.7761 253.415 27.7161 253.522 28.1259C253.629 28.5358 255.846 28.9813 256.465 29.4981C257.083 30.0148 253.248 36.0321 251.292 36.9052C249.336 37.7784 243.29 35.5212 242.874 32.5156C242.481 29.7475 244.604 27.5973 245.418 26.8488C245.973 26.7934 246.532 26.7795 247.089 26.8072L247.267 23.9382C249.913 23.0947 253.76 21.7761 253.76 21.7761Z" fill="#FFCEA9"/>
<path d="M254.574 28.7021C256.239 28.9575 258.141 29.8485 258.397 30.7574C258.706 31.8206 259.36 36.8221 257.921 40.6296C256.483 44.4372 255.514 46.8607 254.681 48.5001C254.681 48.5001 247.487 51.5889 241.685 47.9893C241.685 47.9893 241.28 43.9085 241.257 41.7226C235.906 37.0538 240.478 31.2979 245.02 26.8251C245.564 26.7776 246.111 26.7776 246.655 26.8251C246.655 26.8251 242.606 31.5771 245.418 34.3273C251.447 32.4859 252.642 29.7832 254.574 28.7021Z" fill="#F4F4F4"/>
<path d="M242.701 14.4461C243.296 10.6445 246.043 7.77552 249.967 8.00718C250.961 8.06253 251.934 8.31324 252.831 8.74494C253.727 9.17665 254.53 9.78087 255.193 10.523C255.856 11.2651 256.365 12.1306 256.693 13.0698C257.02 14.0091 257.159 15.0036 257.101 15.9965C257.032 17.1509 256.695 18.2736 256.119 19.2763C255.542 20.2791 254.741 21.1348 253.778 21.7761C253.643 22.3511 253.443 22.909 253.183 23.4393C251.786 25.055 248.1 26.0826 246.881 26.0945C245.829 26.0945 244.919 25.1263 243.908 23.4928C241.851 20.0951 242.374 16.3232 242.701 14.4461Z" fill="#FFCEA9"/>
<path d="M251.185 8.07248C253.938 8.61302 256.197 9.38522 256.946 12.0879C257.458 13.9471 258.135 17.4874 257.487 18.9843L257.095 20.0594L253.76 21.7761C253.76 21.7761 252.208 20.4811 252.689 16.6855C252.671 16.1718 252.508 15.6738 252.22 15.248C252.013 14.8897 251.859 14.5036 251.762 14.1016C251.366 13.0773 250.594 12.2424 249.604 11.7672C247.119 10.3772 243.486 11.5771 242.981 12.082C243.679 10.5739 244.876 9.35209 246.371 8.62192C247.865 7.89175 249.565 7.69773 251.185 8.07248Z" fill="#3A2C6D"/>
<path d="M258.623 56.3409C259.217 52.4918 260.406 49.991 259.86 47.8764C258.662 43.5909 257.094 39.4172 255.175 35.4024C253.986 33.0264 254.324 31.3394 255.585 30.395C257.006 29.3317 258.361 29.801 259.64 32.4502C261.245 35.7885 263.058 39.2159 263.938 44.1877C264.372 46.5993 264.598 48.9397 263.819 53.8936C263.272 57.3566 262.172 59.299 260.846 62.5482C260.484 63.4333 258.064 59.6079 258.623 56.3409Z" fill="#FFCEA9"/>
<path d="M256.185 128.173C254.794 129.308 252.618 128.524 252.523 128.631C251.102 130.05 248.991 131.286 247.416 132.521C246.548 133.205 245.198 134.119 245.442 135.426C245.882 137.772 249.639 137.054 251.054 136.335C252.469 135.616 253.629 134.428 254.972 133.597C255.924 133.003 256.869 132.694 257.018 131.488C257.107 130.757 256.429 128.15 256.185 128.173Z" fill="#38226D"/>
<path d="M257 131.001C256.816 132.189 255.888 132.474 254.937 133.062C253.575 133.911 252.374 135.129 250.959 135.848C249.645 136.507 246.381 137.167 245.46 135.491C245.959 137.755 249.651 137.042 251.055 136.335C252.458 135.628 253.629 134.428 254.973 133.597C255.924 133.003 256.869 132.694 257.018 131.488C257.029 131.325 257.023 131.162 257 131.001Z" fill="#9C73FF"/>
<path d="M246.411 126.225C245.139 127.265 243.213 126.682 243.117 126.777C241.821 128.078 239.895 129.195 238.456 130.341C237.66 130.971 236.417 131.803 236.643 133.008C237.047 135.153 240.484 134.493 241.786 133.834C243.088 133.175 244.164 132.088 245.353 131.327C246.227 130.787 247.089 130.502 247.226 129.397C247.327 128.714 246.637 126.201 246.411 126.225Z" fill="#38226D"/>
<path d="M247.232 128.934C247.059 129.991 246.209 130.282 245.341 130.823C244.092 131.601 242.963 132.717 241.696 133.371C240.507 133.965 237.535 134.559 236.661 133.05C237.119 135.117 240.501 134.47 241.786 133.816C243.07 133.163 244.164 132.07 245.353 131.31C246.227 130.769 247.089 130.484 247.226 129.379C247.245 129.231 247.247 129.082 247.232 128.934Z" fill="#9C73FF"/>
<path d="M238.902 61.4968C239.497 56.7032 241.28 49.7297 241.28 49.7297C242.96 50.5154 244.778 50.9654 246.631 51.0543C249.729 51.2147 254.687 50.2702 254.687 50.2702C255.549 51.7805 256.494 53.242 257.517 54.648C258.902 56.5666 261.59 60.7781 260.942 68.1259C260.514 72.9313 257.82 93.3293 257.82 93.3293C258.87 96.7741 259.428 100.349 259.479 103.95C259.449 106.92 258.67 111.957 257.791 116.62L256.185 128.197C256.185 128.197 254.045 129.741 252.523 128.654L252.713 117.321C252.529 114.547 252.249 110.454 252.077 107.817C251.786 103.564 251.025 96.8042 250.805 95.1172C250.585 93.4303 250.044 90.484 249.782 87.1754C249.521 83.8669 248.278 67.0804 248.278 67.0804L248.106 70.2286C248.106 70.2286 247.945 75.3311 247.208 81.6334C246.471 87.9357 246.215 90.7276 246.215 90.7276C246.215 90.7276 247.493 93.0679 247.654 94.7965C247.785 96.1567 249.342 106.926 248.409 112.403L246.5 126.332C246.024 126.659 245.476 126.869 244.903 126.945C244.329 127.02 243.746 126.959 243.201 126.766L242.077 112.729C241.322 107.383 239.699 96.0617 239.479 94.5886C239.158 92.6521 238.884 91.6958 238.528 85.6073C238.171 79.5188 238.29 66.2963 238.902 61.4968Z" fill="#FFCEA9"/>
<path d="M254.681 48.5001L258.843 56.8161C258.843 56.8161 265.151 66.0468 258.617 89.7653L259.812 97.0655C259.812 97.0655 247.434 105.001 239.152 97.0655C239.152 97.0655 236.28 75.1469 237.808 65.037C238.656 59.2233 239.946 53.4825 241.667 47.8645C241.667 47.8645 243.694 50.1039 254.152 48.6248" fill="#48A4F3"/>
<path d="M262.101 37.1013C262.101 37.1013 259.229 39.9584 255.823 39.602L254.188 34.0422C254.188 34.0422 253.123 31.1316 255.609 29.8842C258.094 28.6368 260.674 31.4048 262.101 37.1013Z" fill="#EDEDED"/>
<path d="M245.02 26.825C245.02 26.825 241.732 25.8271 238.242 33.0977L239.544 33.8877C239.544 33.8877 242.981 28.6961 245.02 26.825Z" fill="#EDEDED"/>
<path opacity="0.4" d="M23.6685 199.875C36.7402 199.875 47.3369 193.761 47.3369 186.219C47.3369 178.677 36.7402 172.563 23.6685 172.563C10.5967 172.563 0 178.677 0 186.219C0 193.761 10.5967 199.875 23.6685 199.875Z" fill="#D6D8E5"/>
<path d="M11.528 182.025C13.2225 183.403 15.7195 182.144 15.8444 182.269C17.8347 184.114 19.9225 185.851 22.0989 187.472C23.1512 188.304 24.7981 189.409 24.477 191.007C23.9419 193.858 19.3759 192.979 17.6517 192.105C15.9276 191.232 14.5185 189.789 12.8955 188.779C11.7064 188.054 10.5827 187.68 10.4044 186.213C10.3092 185.328 11.2248 181.99 11.528 182.025Z" fill="#38226D"/>
<path d="M10.446 185.619C10.666 187.027 11.7956 187.401 12.9549 188.132C14.6078 189.159 16.0703 190.644 17.7945 191.518C19.3878 192.319 23.3593 193.121 24.477 191.084C23.8825 193.834 19.3819 192.973 17.6756 192.106C15.9692 191.238 14.5424 189.789 12.9193 188.779C11.7302 188.054 10.6065 187.68 10.4282 186.213C10.412 186.015 10.418 185.816 10.446 185.619Z" fill="#9C73FF"/>
<path d="M26.2309 176.566C27.9194 177.945 30.8861 176.436 30.9872 176.566C32.752 178.349 34.6158 180.031 36.5699 181.604C37.6282 182.435 39.275 183.54 38.948 185.138C38.413 187.989 33.8469 187.11 32.1228 186.237C30.3986 185.364 28.9896 183.92 27.3665 182.91C26.1774 182.186 25.0597 181.811 24.8813 180.344C24.81 179.459 25.9277 176.531 26.2309 176.566Z" fill="#38226D"/>
<path d="M24.9704 179.982C25.1964 181.39 26.326 181.764 27.4794 182.495C29.1381 183.522 30.6007 185.007 32.3189 185.88C33.9123 186.682 37.8897 187.484 39.0074 185.447C38.4129 188.197 33.9063 187.336 32.2 186.468C30.4937 185.601 29.0727 184.152 27.4437 183.142C26.2844 182.417 25.1369 182.043 24.9585 180.576C24.9399 180.378 24.9439 180.179 24.9704 179.982Z" fill="#9C73FF"/>
<path d="M11.427 119.549C11.5102 122.109 12.3069 133.211 12.6636 139.109C13.0203 145.007 13.1036 152.177 13.1036 152.177C13.1036 152.177 12.0869 156.466 11.427 161.503C10.767 166.54 11.427 182.441 11.427 182.441C12.0745 182.856 12.8277 183.077 13.597 183.077C14.3664 183.077 15.1195 182.856 15.7671 182.441C15.7671 182.441 18.4782 169.718 19.7326 163.986C20.9871 158.254 21.2071 154.945 21.8611 151.393C22.6459 147.092 24.3462 127.039 24.3462 127.039L25.024 127.08L26.8076 149.73C26.2502 151.398 25.8677 153.12 25.6661 154.868C25.1726 158.556 26.1834 177.119 26.1834 177.119C26.9072 177.521 27.728 177.716 28.5555 177.682C29.383 177.649 30.1853 177.388 30.8742 176.929C30.8742 176.929 35.4046 152.343 35.4046 148.601C35.4046 146.13 34.9825 113.502 34.9825 113.502L11.427 119.549Z" fill="#48A4F3"/>
<path d="M17.5685 70.092C17.5685 70.092 17.8598 75.6696 17.735 76.1627C17.6101 76.6557 15.1666 78.2951 14.4591 78.8832C13.7516 79.4712 18.3236 83.9738 20.5412 84.9895C22.7588 86.0052 29.81 83.3263 29.9349 79.8692C30.0597 76.4121 28.7458 73.5075 27.6459 73.3352C26.546 73.163 17.5685 70.092 17.5685 70.092Z" fill="#FFCEA9"/>
<path d="M32.8659 80.4395C33.1929 77.9803 31.5698 75.6399 33.1453 73.6797C38.6567 79.0792 37.9551 93.3708 39.2096 102.513C43.3 106.789 51.5284 111.001 53.8471 112.017C54.2692 112.207 54.6318 112.409 54.5486 112.866C54.2157 114.648 53.6984 115.325 52.6342 117.024C47.1883 114.678 43.2643 113.329 36.4628 106.872C35.8176 106.177 35.2403 105.421 34.7387 104.615C32.7945 98.8416 32.307 84.6866 32.8659 80.4395Z" fill="#FFCEA9"/>
<path d="M16.9442 77.125C16.9442 77.125 20.9989 83.16 26.653 83.754C28.4366 81.972 28.5971 75.7469 26.1298 73.751C26.1298 73.751 28.4009 71.9215 29.9526 72.2779C31.619 73.2873 32.8598 74.8691 33.4426 76.727C34.8811 80.8782 35.5558 85.2552 35.4343 89.6465C35.3391 95.5865 35.4343 113.656 35.4343 113.656C35.4343 113.656 34.6435 117.481 29.5305 120.327C24.4175 123.172 20.6125 123.451 17.1463 122.643C14.2807 121.978 11.9144 120.968 10.9334 118.895C11.1891 114.737 13.044 103.914 12.3484 98.699C11.6528 93.4837 10.5648 89.5811 10.2676 85.3637C9.97029 81.1463 10.8264 81.2057 12.943 79.7267C14.2132 78.7656 15.5503 77.8961 16.9442 77.125Z" fill="#F4F4F4"/>
<path d="M30.2083 61.776C29.5424 57.4458 26.4211 54.1609 21.9502 54.4104C19.6663 54.5376 17.5265 55.5659 16.0013 57.269C14.4761 58.9722 13.6904 61.2108 13.8169 63.4927C13.89 64.8073 14.2667 66.0873 14.9176 67.2322C15.5684 68.3771 16.4757 69.3559 17.5684 70.092C17.7249 70.7488 17.9584 71.3848 18.2641 71.9869C19.8396 73.8342 24.6256 74.9569 25.993 74.7787C27.7766 74.5292 28.716 73.7926 29.5602 71.8681C31.0406 68.4526 30.5769 63.9085 30.2083 61.776Z" fill="#FFCEA9"/>
<path d="M17.5685 70.092L17.9788 66.3142C17.9788 66.3142 14.8634 58.3071 22.194 59.8455C27.0098 60.8553 28.2226 61.2949 29.6911 58.0635C31.1596 54.8322 25.9812 51.9275 19.8396 52.7175C17.7242 52.9403 15.7695 53.9484 14.3625 55.5423C12.9554 57.1362 12.1985 59.1997 12.2415 61.3246C12.402 63.7184 13.0382 68.5298 17.5685 70.092Z" fill="#3A2C6D"/>
<path d="M9.01906 82.8452C11.1356 82.2512 9.52442 82.7442 11.1356 82.2512C16.647 87.6566 15.9632 96.9111 17.2118 106.059C20.2558 111.084 31.552 117.897 31.552 117.897C31.6947 118.871 31.3498 119.156 30.131 121.123C24.691 118.776 20.1309 116.751 13.3294 110.3C13.0619 110.044 12.6695 109.979 12.5566 109.629C10.6124 103.79 8.45426 87.0983 9.01906 82.8452Z" fill="#FFCEA9"/>
<path d="M59.2811 94.1134L51.0706 122.162L33.0562 129.355L39.6258 102.031L59.2811 94.1134Z" fill="#F4F4F4"/>
<path d="M28.7101 118.087C28.9776 117.131 29.6732 117.368 30.4521 117.606C31.2967 117.948 32.2246 118.028 33.1156 117.838C33.8588 117.606 34.3939 116.97 35.0241 116.549C35.3845 116.334 35.7938 116.216 36.2131 116.204C36.1775 116.448 35.8029 117.873 35.8029 117.873C35.8029 117.873 39.7506 117.915 40.1549 117.832C40.2888 117.814 40.425 117.837 40.5455 117.898C40.666 117.959 40.7651 118.055 40.8296 118.173C40.8941 118.292 40.921 118.427 40.9067 118.562C40.8923 118.696 40.8375 118.822 40.7494 118.925L41.017 118.883C41.8255 118.705 42.1704 119.94 41.3559 120.125C41.1418 120.172 40.9219 120.196 40.6959 120.226C41.2251 120.428 41.3559 121.301 40.6959 121.414L40.4938 121.449C40.4009 121.484 40.3015 121.499 40.2025 121.491H40.0776C40.0964 121.585 40.0957 121.682 40.0756 121.776C40.0555 121.87 40.0164 121.959 39.9608 122.037C39.9051 122.116 39.8341 122.182 39.7519 122.232C39.6698 122.282 39.5783 122.315 39.4831 122.328C37.5568 122.584 34.7268 123.35 32.9789 121.764C31.7693 121.645 30.5879 121.326 29.483 120.82C28.4188 120.315 28.389 119.234 28.7101 118.087Z" fill="#FFCEA9"/>
<path d="M48.419 115.794H48.6865C48.5799 115.711 48.5013 115.597 48.4612 115.468C48.421 115.338 48.4214 115.2 48.4621 115.071C48.5028 114.942 48.5819 114.828 48.689 114.745C48.796 114.662 48.9258 114.614 49.0611 114.606C49.4773 114.606 53.5379 113.757 53.5379 113.757L54.0255 112.088C54.0255 111.993 54.733 112.42 54.7567 112.438C55.1005 112.663 55.3892 112.963 55.6012 113.314C55.8132 113.666 55.9432 114.061 55.9815 114.47C56.0012 115.044 55.9062 115.617 55.702 116.154C55.4979 116.692 55.1887 117.183 54.7924 117.6C54.0626 118.336 53.0763 118.762 52.0397 118.788C51.5462 118.818 51.0706 118.842 50.6485 118.877C50.5551 118.877 50.4626 118.859 50.3764 118.823C50.2901 118.787 50.2119 118.734 50.1461 118.668C50.0803 118.602 50.0283 118.523 49.9931 118.437C49.9579 118.35 49.9402 118.258 49.941 118.164H49.8161C49.7203 118.187 49.6206 118.187 49.5248 118.164H49.3167C48.6271 118.164 48.5736 117.309 49.0432 116.976C48.8233 116.976 48.5973 117.018 48.3774 117.018C47.5153 117.072 47.5629 115.788 48.419 115.794Z" fill="#FFCEA9"/>
<path d="M35.1667 84.0985C35.1667 84.0985 37.2476 83.9916 38.1097 82.7798C37.9491 80.7068 35.2916 72.8363 29.9526 72.2482C31.408 73.2667 32.5621 74.6578 33.2939 76.2756C34.263 78.6456 35.1667 84.0985 35.1667 84.0985Z" fill="#EDEDED"/>
<path d="M8.05593 94.4995C8.05593 94.4995 13.3711 96.329 17.1167 93.2521C17.5269 92.5452 14.9466 83.5105 14.9466 83.5105C14.9466 83.5105 12.7171 78.8891 9.22717 80.7246C5.73725 82.5601 8.05593 94.4995 8.05593 94.4995Z" fill="#EDEDED"/>
<path opacity="0.4" d="M62.2479 240.101C63.9422 240.101 65.3157 239.308 65.3157 238.331C65.3157 237.353 63.9422 236.561 62.2479 236.561C60.5536 236.561 59.1801 237.353 59.1801 238.331C59.1801 239.308 60.5536 240.101 62.2479 240.101Z" fill="#D6D8E5"/>
<path opacity="0.4" d="M119.704 272.836C121.398 272.836 122.772 272.044 122.772 271.066C122.772 270.088 121.398 269.296 119.704 269.296C118.009 269.296 116.636 270.088 116.636 271.066C116.636 272.044 118.009 272.836 119.704 272.836Z" fill="#D6D8E5"/>
<path opacity="0.4" d="M219.294 212.153C220.989 212.153 222.362 211.361 222.362 210.383C222.362 209.405 220.989 208.613 219.294 208.613C217.6 208.613 216.227 209.405 216.227 210.383C216.227 211.361 217.6 212.153 219.294 212.153Z" fill="#D6D8E5"/>
<path d="M60.2502 178.384V237.974C60.2639 238.158 60.3261 238.336 60.4305 238.488C60.5349 238.64 60.6779 238.762 60.8448 238.841C61.3117 239.079 61.8281 239.202 62.3519 239.202C62.8758 239.202 63.3922 239.079 63.8591 238.841C64.0256 238.762 64.1682 238.64 64.2726 238.487C64.377 238.335 64.4394 238.158 64.4536 237.974V178.384H60.2502Z" fill="#C1C4D3"/>
<path d="M117.843 201.574V270.733C117.853 270.912 117.908 271.086 118.002 271.239C118.097 271.391 118.228 271.518 118.384 271.607C118.784 271.843 119.239 271.967 119.704 271.967C120.168 271.967 120.624 271.843 121.024 271.607C121.18 271.518 121.312 271.392 121.408 271.239C121.503 271.087 121.559 270.913 121.571 270.733V201.574H117.843Z" fill="#C1C4D3"/>
<path d="M217.428 153.537V209.931C217.438 210.11 217.494 210.284 217.59 210.435C217.685 210.587 217.818 210.712 217.975 210.799C218.373 211.035 218.828 211.16 219.291 211.16C219.755 211.16 220.21 211.035 220.608 210.799C220.765 210.712 220.898 210.587 220.993 210.435C221.089 210.284 221.145 210.11 221.155 209.931V153.537H217.428Z" fill="#C1C4D3"/>
<path d="M119.704 219.323L56.5284 182.881V178.622L119.704 215.07V219.323Z" fill="#62C8E8"/>
<path d="M226.221 153.751L119.692 215.2L56.5106 178.758L163.04 117.309L226.221 153.751Z" fill="#46E7EA"/>
<path d="M226.233 157.873L119.704 219.323V215.07L226.233 153.62V157.873Z" fill="#5CBFD6"/>
<path d="M195.828 141.491L178.842 155.705L163.325 149.534L180.311 135.319L195.828 141.491Z" fill="#F4F4F4"/>
<path d="M191.886 142.15L170.727 154.357L157.403 146.67L178.563 134.464L191.886 142.15Z" fill="#F4F4F4"/>
<path d="M172.142 151.06L170.846 151.809L162.058 146.742L163.355 145.993L172.142 151.06Z" fill="#D6D8E5"/>
<path d="M175.055 149.379L173.759 150.128L164.978 145.061L166.274 144.312L175.055 149.379Z" fill="#D6D8E5"/>
<path d="M177.861 147.763L176.565 148.506L167.784 143.445L169.08 142.697L177.861 147.763Z" fill="#D6D8E5"/>
<path d="M184.449 143.962L183.153 144.71L178.04 141.764L179.336 141.016L184.449 143.962Z" fill="#D6D8E5"/>
<path d="M187.255 142.346L185.959 143.089L180.846 140.142L182.142 139.394L187.255 142.346Z" fill="#D6D8E5"/>
<path d="M173.123 153.43C173.474 153.282 191.886 142.144 191.886 142.144L172.653 153.252L173.123 153.43Z" fill="#D6D6D6"/>
<path opacity="0.2" d="M176.131 170.627C178.679 170.627 180.745 169.435 180.745 167.965C180.745 166.496 178.679 165.304 176.131 165.304C173.583 165.304 171.518 166.496 171.518 167.965C171.518 169.435 173.583 170.627 176.131 170.627Z" fill="black"/>
<path d="M181.197 167.585V160.487L171.987 160.719V167.253C171.815 168.037 172.249 168.862 173.301 169.468C174.314 169.983 175.434 170.252 176.571 170.252C177.708 170.252 178.828 169.983 179.841 169.468C180.214 169.304 180.537 169.042 180.775 168.711C181.014 168.38 181.159 167.991 181.197 167.585Z" fill="#F4F4F4"/>
<path d="M176.583 163.148C179.131 163.148 181.197 161.957 181.197 160.487C181.197 159.017 179.131 157.826 176.583 157.826C174.035 157.826 171.969 159.017 171.969 160.487C171.969 161.957 174.035 163.148 176.583 163.148Z" fill="#F4F4F4"/>
<path d="M180.465 160.487C180.465 160.921 180.109 161.378 179.478 161.734C178.678 162.161 177.788 162.393 176.88 162.411H176.577C175.57 162.433 174.573 162.198 173.682 161.728C173.057 161.372 172.695 160.915 172.695 160.481C172.695 160.047 173.057 159.596 173.682 159.234C174.573 158.764 175.57 158.529 176.577 158.551H176.874C177.782 158.569 178.672 158.801 179.473 159.228C180.109 159.602 180.465 160.053 180.465 160.487Z" fill="#28221C"/>
<path opacity="0.07" d="M180.465 160.487C180.465 160.921 180.109 161.378 179.478 161.734C178.683 162.176 177.788 162.408 176.877 162.408C175.967 162.408 175.072 162.176 174.276 161.734C173.652 161.378 173.289 160.921 173.289 160.487C173.289 160.053 173.652 159.602 174.276 159.24C175.072 158.797 175.967 158.565 176.877 158.565C177.788 158.565 178.683 158.797 179.478 159.24C180.109 159.602 180.465 160.053 180.465 160.487Z" fill="white"/>
<path d="M180.525 163.772L179.544 163.207L179.068 163.487L179.544 163.76V163.938L180.459 164.467V164.639C180.68 164.954 180.878 165.283 181.054 165.625L181.09 165.595V167.882C181.09 168.476 180.739 168.28 180.584 168.191L179.556 167.597L179.08 167.876L179.556 168.15V168.328L180.584 168.922C180.691 168.984 180.805 169.034 180.923 169.07L180.858 169.361L181.393 169.058C181.506 168.962 181.594 168.838 181.648 168.699C181.702 168.56 181.721 168.41 181.702 168.262V165.886C181.679 165.468 181.561 165.06 181.357 164.693C181.153 164.327 180.869 164.012 180.525 163.772Z" fill="#F4F4F4"/>
<path d="M180.097 169.201L179.068 168.607V167.876L180.097 168.47C180.245 168.553 180.602 168.755 180.602 168.156V165.779C180.584 165.578 180.522 165.382 180.419 165.207C180.316 165.033 180.176 164.883 180.007 164.77L179.074 164.229V163.499L180.055 164.063C180.397 164.299 180.682 164.609 180.888 164.97C181.094 165.331 181.216 165.733 181.244 166.148V168.524C181.232 169.165 180.935 169.682 180.097 169.201Z" fill="#F4F4F4"/>
<path opacity="0.2" d="M85.1137 180.202C87.6617 180.202 89.7273 179.01 89.7273 177.541C89.7273 176.071 87.6617 174.88 85.1137 174.88C82.5657 174.88 80.5001 176.071 80.5001 177.541C80.5001 179.01 82.5657 180.202 85.1137 180.202Z" fill="black"/>
<path d="M90.1792 177.161V170.062L80.9699 170.294V176.828C80.7975 177.618 81.2374 178.444 82.2838 179.043C83.2967 179.559 84.4171 179.827 85.5538 179.827C86.6904 179.827 87.8109 179.559 88.8237 179.043C89.1975 178.879 89.5205 178.618 89.7589 178.287C89.9973 177.956 90.1425 177.567 90.1792 177.161Z" fill="#E5E5E5"/>
<path d="M85.5656 172.723C88.1136 172.723 90.1792 171.532 90.1792 170.062C90.1792 168.592 88.1136 167.401 85.5656 167.401C83.0176 167.401 80.952 168.592 80.952 170.062C80.952 171.532 83.0176 172.723 85.5656 172.723Z" fill="#E5E5E5"/>
<path d="M89.4479 170.062C89.4479 170.496 89.0852 170.947 88.4609 171.31C87.6591 171.733 86.7697 171.965 85.8628 171.987H85.5655C84.5581 172.008 83.5617 171.773 82.6702 171.304C82.04 170.941 81.6832 170.49 81.6832 170.056C81.6832 169.623 82.04 169.165 82.6702 168.803C83.5623 168.336 84.5586 168.103 85.5655 168.126H85.8628C86.7696 168.143 87.6596 168.373 88.4609 168.797C89.0852 169.171 89.4479 169.629 89.4479 170.062Z" fill="#28221C"/>
<path opacity="0.07" d="M89.4479 170.062C89.4479 170.496 89.0852 170.947 88.461 171.31C87.6654 171.752 86.7702 171.984 85.8599 171.984C84.9496 171.984 84.0543 171.752 83.2588 171.31C82.6642 170.947 82.2719 170.496 82.2719 170.062C82.2719 169.629 82.6345 169.171 83.2588 168.809C84.0543 168.367 84.9496 168.135 85.8599 168.135C86.7702 168.135 87.6654 168.367 88.461 168.809C89.0852 169.171 89.4479 169.629 89.4479 170.062Z" fill="white"/>
<path d="M89.5013 173.347L88.5263 172.783L88.0447 173.056L88.5263 173.335V173.513L89.4419 174.042L89.4121 174.214C89.6342 174.528 89.8329 174.858 90.0067 175.2L90.0364 175.171V177.457C90.0364 178.051 89.6856 177.855 89.537 177.766L88.5084 177.172L88.0269 177.446L88.5084 177.725V177.903L89.537 178.497C89.6418 178.559 89.7535 178.609 89.8699 178.645L89.8105 178.937L90.3456 178.634C90.4616 178.537 90.5514 178.413 90.6066 178.273C90.6617 178.133 90.6803 177.981 90.6607 177.832V175.456C90.6391 175.04 90.5236 174.634 90.3229 174.269C90.1221 173.903 89.8412 173.588 89.5013 173.347Z" fill="#E5E5E5"/>
<path d="M89.0793 178.794L88.0448 178.2V177.463L89.0793 178.057C89.2279 178.147 89.5787 178.349 89.5787 177.749V175.373C89.5588 175.17 89.4954 174.975 89.3928 174.8C89.2901 174.624 89.1507 174.473 88.9842 174.357L88.0448 173.822V173.086L89.0258 173.68C89.3685 173.915 89.6534 174.225 89.8594 174.586C90.0653 174.947 90.1868 175.35 90.2149 175.765V178.141C90.2149 178.741 89.9176 179.257 89.0793 178.794Z" fill="#E5E5E5"/>
<path opacity="0.2" d="M144.008 159.958L130.334 152.064C130.215 151.994 130.08 151.957 129.942 151.957C129.804 151.957 129.668 151.994 129.549 152.064L105.542 165.916L119.603 174.042L144.008 159.958Z" fill="black"/>
<path d="M144.656 158.408L130.982 150.514C130.863 150.444 130.728 150.407 130.59 150.407C130.452 150.407 130.316 150.444 130.197 150.514L106.19 164.366L120.269 172.486L144.656 158.408Z" fill="#F4F4F4"/>
<path d="M119.621 169.581L118.574 170.175C118.491 170.228 118.503 170.312 118.574 170.371L119.573 170.965C119.625 170.991 119.682 171.005 119.739 171.005C119.797 171.005 119.854 170.991 119.906 170.965L120.946 170.371C121.03 170.324 121.024 170.24 120.946 170.181L119.953 169.587C119.902 169.561 119.845 169.547 119.788 169.546C119.73 169.545 119.673 169.557 119.621 169.581Z" fill="#2B303F"/>
<path d="M121.095 168.732L120.055 169.326C119.965 169.373 119.977 169.462 120.055 169.516L121.047 170.11C121.099 170.135 121.156 170.147 121.214 170.147C121.272 170.147 121.328 170.135 121.38 170.11L122.421 169.516C122.51 169.468 122.498 169.379 122.421 169.326L121.428 168.732C121.377 168.704 121.32 168.69 121.261 168.69C121.203 168.69 121.146 168.704 121.095 168.732Z" fill="#2B303F"/>
<path d="M122.587 167.87L121.547 168.464C121.464 168.512 121.47 168.601 121.547 168.654L122.54 169.248C122.592 169.273 122.649 169.286 122.706 169.286C122.764 169.286 122.821 169.273 122.873 169.248L123.919 168.654C124.002 168.607 123.99 168.518 123.919 168.464L122.92 167.87C122.869 167.843 122.812 167.828 122.754 167.828C122.696 167.828 122.639 167.843 122.587 167.87Z" fill="#2B303F"/>
<path d="M124.05 167.027L123.004 167.621C122.92 167.668 122.932 167.757 123.004 167.811L124.002 168.405C124.054 168.432 124.111 168.447 124.169 168.447C124.227 168.447 124.284 168.432 124.335 168.405L125.376 167.811C125.465 167.763 125.453 167.674 125.376 167.621L124.383 167.027C124.331 167.002 124.274 166.989 124.216 166.989C124.159 166.989 124.102 167.002 124.05 167.027Z" fill="#2B303F"/>
<path d="M125.524 166.172L124.484 166.766C124.401 166.813 124.407 166.896 124.484 166.956L125.477 167.55C125.529 167.574 125.586 167.587 125.643 167.587C125.701 167.587 125.758 167.574 125.81 167.55L126.856 166.956C126.939 166.902 126.927 166.819 126.856 166.76L125.857 166.166C125.805 166.14 125.748 166.128 125.69 166.129C125.632 166.13 125.575 166.144 125.524 166.172Z" fill="#2B303F"/>
<path d="M127.005 165.322L125.958 165.916C125.875 165.97 125.887 166.053 125.958 166.112L126.957 166.706C127.008 166.734 127.066 166.748 127.124 166.748C127.182 166.748 127.239 166.734 127.29 166.706L128.331 166.112C128.414 166.065 128.408 165.975 128.331 165.922L127.338 165.328C127.286 165.302 127.23 165.288 127.172 165.287C127.114 165.286 127.057 165.298 127.005 165.322Z" fill="#2B303F"/>
<path d="M128.479 164.473L127.439 165.067C127.35 165.114 127.361 165.203 127.439 165.257L128.432 165.851C128.484 165.876 128.54 165.888 128.598 165.888C128.656 165.888 128.713 165.876 128.765 165.851L129.805 165.257C129.894 165.209 129.882 165.12 129.805 165.067L128.812 164.473C128.761 164.445 128.704 164.431 128.646 164.431C128.588 164.431 128.53 164.445 128.479 164.473Z" fill="#2B303F"/>
<path d="M129.954 163.617L128.913 164.211C128.83 164.265 128.836 164.348 128.913 164.407L129.906 165.001C129.958 165.027 130.015 165.041 130.073 165.041C130.13 165.041 130.187 165.027 130.239 165.001L131.285 164.407C131.369 164.36 131.357 164.277 131.285 164.217L130.287 163.623C130.235 163.598 130.178 163.584 130.121 163.583C130.063 163.582 130.006 163.593 129.954 163.617Z" fill="#2B303F"/>
<path d="M131.434 162.756L130.388 163.35C130.304 163.397 130.316 163.487 130.388 163.54L131.386 164.134C131.438 164.16 131.495 164.174 131.553 164.174C131.611 164.174 131.668 164.16 131.719 164.134L132.76 163.54C132.849 163.493 132.837 163.403 132.76 163.35L131.767 162.756C131.716 162.728 131.659 162.714 131.601 162.714C131.542 162.714 131.485 162.728 131.434 162.756Z" fill="#2B303F"/>
<path d="M132.909 161.913L131.868 162.507C131.785 162.554 131.791 162.637 131.868 162.697L132.861 163.291C132.913 163.315 132.97 163.328 133.027 163.328C133.085 163.328 133.142 163.315 133.194 163.291L134.24 162.697C134.323 162.643 134.312 162.56 134.24 162.501L133.241 161.907C133.189 161.881 133.132 161.869 133.074 161.87C133.016 161.871 132.96 161.886 132.909 161.913Z" fill="#2B303F"/>
<path d="M134.365 161.063L133.319 161.657C133.235 161.705 133.247 161.794 133.319 161.847L134.317 162.441C134.369 162.469 134.426 162.483 134.484 162.483C134.542 162.483 134.599 162.469 134.65 162.441L135.691 161.847C135.774 161.8 135.768 161.711 135.691 161.657L134.698 161.063C134.646 161.038 134.589 161.026 134.532 161.026C134.474 161.026 134.417 161.038 134.365 161.063Z" fill="#2B303F"/>
<path d="M135.863 160.208L134.823 160.802C134.734 160.849 134.746 160.932 134.823 160.992L135.816 161.586C135.868 161.611 135.925 161.624 135.982 161.624C136.04 161.624 136.097 161.611 136.149 161.586L137.189 160.992C137.278 160.938 137.266 160.855 137.189 160.796L136.196 160.202C136.144 160.177 136.087 160.164 136.029 160.165C135.971 160.166 135.914 160.181 135.863 160.208Z" fill="#2B303F"/>
<path d="M137.338 159.358L136.297 159.952C136.214 160.006 136.22 160.089 136.297 160.148L137.29 160.742C137.342 160.768 137.399 160.782 137.457 160.782C137.514 160.782 137.571 160.768 137.623 160.742L138.669 160.148C138.753 160.101 138.741 160.018 138.669 159.958L137.671 159.364C137.619 159.339 137.562 159.325 137.505 159.324C137.447 159.323 137.39 159.334 137.338 159.358Z" fill="#2B303F"/>
<path d="M139.532 158.099L137.748 159.109C137.665 159.156 137.677 159.246 137.748 159.299L138.747 159.893C138.799 159.918 138.856 159.931 138.913 159.931C138.971 159.931 139.028 159.918 139.08 159.893L140.863 158.883C140.947 158.836 140.935 158.747 140.863 158.693L139.865 158.099C139.814 158.07 139.756 158.055 139.698 158.055C139.64 158.055 139.582 158.07 139.532 158.099Z" fill="#2B303F"/>
<path d="M120.376 167.508L119.335 168.102C119.252 168.15 119.258 168.233 119.335 168.292L120.328 168.886C120.38 168.911 120.437 168.924 120.495 168.924C120.552 168.924 120.609 168.911 120.661 168.886L121.707 168.292C121.791 168.239 121.779 168.155 121.707 168.096L120.691 167.508C120.642 167.485 120.588 167.473 120.533 167.473C120.479 167.473 120.425 167.485 120.376 167.508Z" fill="#2B303F"/>
<path d="M121.88 166.641L120.839 167.235C120.75 167.282 120.762 167.371 120.839 167.425L121.832 168.019C121.884 168.044 121.941 168.057 121.999 168.057C122.056 168.057 122.113 168.044 122.165 168.019L123.212 167.425C123.295 167.377 123.283 167.288 123.212 167.235L122.213 166.641C122.162 166.613 122.104 166.599 122.046 166.599C121.988 166.599 121.931 166.613 121.88 166.641Z" fill="#2B303F"/>
<path d="M123.336 165.785L122.296 166.379C122.207 166.433 122.219 166.516 122.296 166.575L123.289 167.169C123.341 167.196 123.398 167.209 123.455 167.209C123.513 167.209 123.57 167.196 123.622 167.169L124.662 166.575C124.751 166.528 124.74 166.439 124.662 166.385L123.669 165.791C123.618 165.766 123.561 165.752 123.504 165.751C123.446 165.75 123.389 165.762 123.336 165.785Z" fill="#2B303F"/>
<path d="M124.817 164.93L123.77 165.524C123.687 165.572 123.699 165.655 123.77 165.714L124.769 166.308C124.821 166.333 124.878 166.346 124.936 166.346C124.993 166.346 125.05 166.333 125.102 166.308L126.143 165.714C126.226 165.661 126.22 165.578 126.143 165.518L125.15 164.924C125.098 164.899 125.04 164.886 124.983 164.887C124.925 164.888 124.868 164.903 124.817 164.93Z" fill="#2B303F"/>
<path d="M126.285 164.087L125.239 164.681C125.156 164.728 125.168 164.817 125.239 164.871L126.238 165.465C126.289 165.492 126.346 165.507 126.404 165.507C126.462 165.507 126.52 165.492 126.571 165.465L127.611 164.871C127.694 164.823 127.688 164.734 127.611 164.681L126.618 164.087C126.566 164.062 126.509 164.049 126.452 164.049C126.394 164.049 126.337 164.062 126.285 164.087Z" fill="#2B303F"/>
<path d="M127.766 163.231L126.719 163.825C126.636 163.879 126.648 163.962 126.719 164.021L127.718 164.615C127.769 164.641 127.825 164.655 127.882 164.655C127.939 164.655 127.995 164.641 128.045 164.615L129.092 164.021C129.175 163.974 129.163 163.891 129.092 163.831L128.093 163.237C128.042 163.212 127.987 163.198 127.93 163.197C127.873 163.196 127.817 163.207 127.766 163.231Z" fill="#2B303F"/>
<path d="M129.24 162.376L128.2 162.97C128.117 163.017 128.122 163.101 128.2 163.16L129.193 163.754C129.245 163.779 129.301 163.792 129.359 163.792C129.417 163.792 129.474 163.779 129.526 163.754L130.572 163.16C130.655 163.106 130.643 163.023 130.572 162.964L129.573 162.37C129.521 162.345 129.464 162.332 129.406 162.333C129.348 162.334 129.291 162.349 129.24 162.376Z" fill="#2B303F"/>
<path d="M130.72 161.526L129.68 162.12C129.591 162.168 129.603 162.257 129.68 162.311L130.673 162.905C130.724 162.932 130.781 162.947 130.839 162.947C130.898 162.947 130.955 162.932 131.006 162.905L132.046 162.311C132.135 162.263 132.124 162.174 132.046 162.12L131.053 161.526C131.001 161.502 130.945 161.489 130.887 161.489C130.829 161.489 130.772 161.502 130.72 161.526Z" fill="#2B303F"/>
<path d="M132.201 160.671L131.161 161.265C131.071 161.319 131.083 161.402 131.161 161.461L132.153 162.055C132.205 162.081 132.262 162.095 132.32 162.095C132.378 162.095 132.435 162.081 132.486 162.055L133.527 161.461C133.616 161.414 133.604 161.33 133.527 161.271L132.534 160.677C132.482 160.651 132.426 160.637 132.368 160.636C132.311 160.635 132.253 160.647 132.201 160.671Z" fill="#2B303F"/>
<path d="M133.681 159.816L132.635 160.41C132.552 160.457 132.564 160.54 132.635 160.6L133.634 161.194C133.686 161.219 133.743 161.231 133.8 161.231C133.858 161.231 133.915 161.219 133.967 161.194L135.007 160.6C135.09 160.546 135.084 160.463 135.007 160.404L134.014 159.81C133.962 159.785 133.905 159.772 133.847 159.773C133.789 159.774 133.732 159.789 133.681 159.816Z" fill="#2B303F"/>
<path d="M135.162 158.966L134.115 159.56C134.032 159.608 134.044 159.697 134.115 159.75L135.114 160.344C135.165 160.372 135.223 160.386 135.281 160.386C135.339 160.386 135.396 160.372 135.447 160.344L136.488 159.75C136.571 159.703 136.565 159.614 136.488 159.56L135.495 158.966C135.443 158.942 135.386 158.929 135.328 158.929C135.271 158.929 135.214 158.942 135.162 158.966Z" fill="#2B303F"/>
<path d="M136.642 158.111L135.596 158.705C135.512 158.758 135.524 158.842 135.596 158.901L136.589 159.495C136.64 159.521 136.697 159.535 136.755 159.535C136.813 159.535 136.87 159.521 136.921 159.495L137.968 158.901C138.051 158.853 138.039 158.77 137.968 158.711L136.969 158.117C136.919 158.091 136.863 158.077 136.806 158.076C136.75 158.075 136.693 158.087 136.642 158.111Z" fill="#2B303F"/>
<path d="M118.907 168.346L117.124 169.355C117.04 169.409 117.052 169.492 117.124 169.551L118.122 170.145C118.174 170.171 118.231 170.185 118.289 170.185C118.347 170.185 118.404 170.171 118.455 170.145L120.209 169.13C120.292 169.082 120.281 168.993 120.209 168.94L119.21 168.346C119.163 168.324 119.111 168.314 119.059 168.314C119.007 168.314 118.955 168.324 118.907 168.346Z" fill="#2B303F"/>
<path d="M139.46 158.04L138.414 158.634C138.366 158.657 138.313 158.67 138.259 158.67C138.206 158.67 138.153 158.657 138.105 158.634L137.052 158.04C136.969 157.992 136.969 157.915 137.052 157.861L137.136 157.814C137.213 157.772 137.213 157.695 137.136 157.648L136.024 157.012C135.935 156.959 135.935 156.881 136.024 156.828L136.69 156.448C136.738 156.424 136.791 156.412 136.844 156.412C136.898 156.412 136.951 156.424 136.999 156.448L138.039 157.042L138.253 157.166L138.408 157.256L138.569 157.345L139.46 157.861C139.544 157.915 139.544 158.004 139.46 158.04Z" fill="#2B303F"/>
<path d="M113.901 166.273L112.855 166.867C112.772 166.914 112.783 166.997 112.855 167.057L113.854 167.651C113.905 167.675 113.96 167.688 114.017 167.688C114.074 167.688 114.13 167.675 114.181 167.651L115.227 167.057C115.31 167.003 115.298 166.92 115.227 166.861L114.228 166.267C114.177 166.241 114.121 166.229 114.064 166.23C114.007 166.231 113.951 166.246 113.901 166.273Z" fill="#2B303F"/>
<path d="M115.37 165.423L114.329 166.017C114.246 166.065 114.252 166.148 114.329 166.207L115.322 166.801C115.374 166.826 115.431 166.839 115.488 166.839C115.546 166.839 115.603 166.826 115.655 166.801L116.701 166.207C116.785 166.154 116.773 166.071 116.701 166.011L115.703 165.417C115.65 165.392 115.593 165.379 115.535 165.38C115.477 165.381 115.421 165.396 115.37 165.423Z" fill="#2B303F"/>
<path d="M116.844 164.574L115.804 165.168C115.715 165.215 115.726 165.298 115.804 165.358L116.797 165.952C116.849 165.977 116.905 165.989 116.963 165.989C117.021 165.989 117.078 165.977 117.13 165.952L118.17 165.358C118.259 165.304 118.247 165.221 118.17 165.162L117.177 164.568C117.125 164.543 117.068 164.53 117.01 164.531C116.952 164.532 116.895 164.547 116.844 164.574Z" fill="#2B303F"/>
<path d="M129.383 157.345L128.342 157.939C128.259 157.986 128.265 158.075 128.342 158.129L129.335 158.723C129.387 158.748 129.444 158.76 129.502 158.76C129.559 158.76 129.616 158.748 129.668 158.723L130.715 158.129C130.798 158.081 130.786 157.992 130.715 157.939L129.716 157.345C129.665 157.317 129.607 157.303 129.549 157.303C129.491 157.303 129.434 157.317 129.383 157.345Z" fill="#2B303F"/>
<path d="M130.857 156.495L129.817 157.089C129.728 157.137 129.74 157.226 129.817 157.279L130.81 157.873C130.862 157.898 130.919 157.911 130.976 157.911C131.034 157.911 131.091 157.898 131.143 157.873L132.183 157.279C132.272 157.232 132.26 157.143 132.183 157.089L131.19 156.495C131.139 156.468 131.082 156.453 131.024 156.453C130.966 156.453 130.908 156.468 130.857 156.495Z" fill="#2B303F"/>
<path d="M132.332 155.628L131.285 156.222C131.202 156.27 131.214 156.359 131.285 156.412L132.284 157.006C132.336 157.031 132.393 157.044 132.451 157.044C132.508 157.044 132.565 157.031 132.617 157.006L133.658 156.412C133.741 156.365 133.735 156.276 133.658 156.222L132.665 155.628C132.614 155.6 132.556 155.586 132.498 155.586C132.44 155.586 132.383 155.6 132.332 155.628Z" fill="#2B303F"/>
<path d="M133.8 154.796L132.76 155.39C132.677 155.438 132.683 155.527 132.76 155.581L133.753 156.175C133.805 156.199 133.862 156.212 133.919 156.212C133.977 156.212 134.034 156.199 134.086 156.175L135.132 155.581C135.215 155.533 135.203 155.444 135.132 155.39L134.133 154.796C134.082 154.769 134.025 154.754 133.967 154.754C133.909 154.754 133.851 154.769 133.8 154.796Z" fill="#2B303F"/>
<path d="M118.699 163.51L117.272 164.33C117.189 164.378 117.201 164.461 117.272 164.52L118.271 165.114C118.323 165.139 118.38 165.152 118.437 165.152C118.495 165.152 118.552 165.139 118.604 165.114L120.025 164.294C120.108 164.247 120.096 164.158 120.025 164.104L119.026 163.51C118.976 163.483 118.92 163.468 118.863 163.468C118.805 163.468 118.749 163.483 118.699 163.51Z" fill="#2B303F"/>
<path d="M127.914 158.194L126.487 159.014C126.404 159.061 126.416 159.144 126.487 159.204L127.486 159.798C127.538 159.823 127.595 159.836 127.653 159.836C127.71 159.836 127.767 159.823 127.819 159.798L129.24 158.978C129.323 158.931 129.317 158.842 129.24 158.788L128.247 158.194C128.196 158.167 128.139 158.152 128.081 158.152C128.023 158.152 127.966 158.167 127.914 158.194Z" fill="#2B303F"/>
<path d="M126.042 159.257L119.109 163.261C119.02 163.308 119.032 163.398 119.109 163.451L120.102 164.045C120.154 164.07 120.211 164.083 120.269 164.083C120.326 164.083 120.383 164.07 120.435 164.045L127.373 160.047C127.457 159.994 127.445 159.911 127.344 159.851L126.351 159.257C126.302 159.235 126.249 159.223 126.196 159.223C126.143 159.223 126.09 159.235 126.042 159.257Z" fill="#2B303F"/>
<path d="M119.347 166.433L118.307 167.027C118.218 167.074 118.229 167.158 118.307 167.217L119.3 167.811C119.351 167.837 119.408 167.851 119.466 167.851C119.524 167.851 119.581 167.837 119.633 167.811L120.679 167.217C120.762 167.169 120.75 167.086 120.679 167.027L119.68 166.433C119.629 166.407 119.572 166.393 119.514 166.393C119.456 166.393 119.399 166.407 119.347 166.433Z" fill="#2B303F"/>
<path d="M120.822 165.583L119.781 166.177C119.698 166.231 119.704 166.314 119.781 166.373L120.774 166.967C120.826 166.994 120.883 167.007 120.941 167.007C120.998 167.007 121.055 166.994 121.107 166.967L122.153 166.373C122.237 166.326 122.225 166.243 122.153 166.183L121.155 165.589C121.103 165.564 121.046 165.55 120.989 165.549C120.931 165.548 120.874 165.56 120.822 165.583Z" fill="#2B303F"/>
<path d="M122.296 164.734L121.256 165.328C121.172 165.376 121.178 165.465 121.256 165.518L122.249 166.112C122.3 166.14 122.357 166.154 122.415 166.154C122.473 166.154 122.53 166.14 122.581 166.112L123.628 165.518C123.711 165.471 123.699 165.382 123.628 165.328L122.629 164.734C122.577 164.708 122.52 164.694 122.463 164.694C122.405 164.694 122.348 164.708 122.296 164.734Z" fill="#2B303F"/>
<path d="M123.776 163.885L122.73 164.479C122.647 164.526 122.659 164.615 122.73 164.669L123.729 165.263C123.78 165.287 123.836 165.3 123.892 165.3C123.949 165.3 124.005 165.287 124.056 165.263L125.102 164.669C125.185 164.615 125.174 164.532 125.102 164.473L124.103 163.879C124.053 163.852 123.996 163.839 123.939 163.84C123.882 163.841 123.826 163.856 123.776 163.885Z" fill="#2B303F"/>
<path d="M125.251 163.029L124.205 163.623C124.121 163.671 124.133 163.754 124.205 163.813L125.203 164.407C125.255 164.433 125.312 164.447 125.37 164.447C125.428 164.447 125.485 164.433 125.536 164.407L126.577 163.813C126.66 163.766 126.654 163.683 126.577 163.623L125.584 163.029C125.532 163.003 125.475 162.99 125.417 162.99C125.36 162.99 125.303 163.003 125.251 163.029Z" fill="#2B303F"/>
<path d="M126.725 162.162L125.679 162.756C125.596 162.81 125.608 162.893 125.679 162.952L126.678 163.546C126.729 163.572 126.786 163.586 126.844 163.586C126.902 163.586 126.959 163.572 127.011 163.546L128.051 162.952C128.134 162.905 128.128 162.821 128.051 162.762L127.058 162.168C127.007 162.142 126.95 162.128 126.892 162.127C126.835 162.126 126.778 162.138 126.725 162.162Z" fill="#2B303F"/>
<path d="M128.2 161.33L127.153 161.924C127.07 161.972 127.082 162.061 127.153 162.115L128.152 162.709C128.203 162.736 128.261 162.75 128.319 162.75C128.377 162.75 128.434 162.736 128.485 162.709L129.526 162.115C129.615 162.067 129.603 161.978 129.526 161.924L128.533 161.33C128.481 161.304 128.424 161.291 128.366 161.291C128.308 161.291 128.251 161.304 128.2 161.33Z" fill="#2B303F"/>
<path d="M129.674 160.475L128.634 161.069C128.544 161.117 128.556 161.2 128.634 161.259L129.627 161.853C129.679 161.878 129.735 161.891 129.793 161.891C129.851 161.891 129.907 161.878 129.959 161.853L131 161.259C131.089 161.206 131.077 161.123 131 161.063L130.007 160.469C129.955 160.444 129.898 160.431 129.84 160.432C129.782 160.433 129.725 160.448 129.674 160.475Z" fill="#2B303F"/>
<path d="M131.149 159.626L130.108 160.22C130.019 160.267 130.031 160.35 130.108 160.41L131.101 161.004C131.153 161.03 131.21 161.043 131.268 161.043C131.325 161.043 131.382 161.03 131.434 161.004L132.474 160.41C132.564 160.362 132.552 160.279 132.474 160.22L131.482 159.626C131.43 159.6 131.373 159.586 131.315 159.586C131.257 159.586 131.2 159.6 131.149 159.626Z" fill="#2B303F"/>
<path d="M132.623 158.776L131.583 159.37C131.499 159.424 131.505 159.507 131.583 159.566L132.576 160.16C132.627 160.186 132.684 160.2 132.742 160.2C132.8 160.2 132.857 160.186 132.908 160.16L133.955 159.566C134.038 159.519 134.026 159.436 133.955 159.376L132.956 158.782C132.905 158.756 132.848 158.743 132.79 158.742C132.733 158.74 132.676 158.752 132.623 158.776Z" fill="#2B303F"/>
<path d="M134.097 157.927L133.057 158.521C132.974 158.568 132.98 158.657 133.057 158.711L134.05 159.305C134.102 159.331 134.159 159.345 134.216 159.345C134.274 159.345 134.331 159.331 134.383 159.305L135.429 158.711C135.512 158.663 135.501 158.574 135.429 158.521L134.43 157.927C134.379 157.899 134.322 157.885 134.264 157.885C134.206 157.885 134.149 157.899 134.097 157.927Z" fill="#2B303F"/>
<path d="M135.554 157.071L134.508 157.665C134.425 157.713 134.436 157.796 134.508 157.856L135.507 158.45C135.558 158.474 135.613 158.487 135.67 158.487C135.727 158.487 135.783 158.474 135.834 158.45L136.88 157.856C136.963 157.802 136.951 157.719 136.88 157.66L135.881 157.066C135.83 157.04 135.774 157.028 135.717 157.029C135.66 157.03 135.604 157.045 135.554 157.071Z" fill="#2B303F"/>
<path d="M117.873 167.288L115.715 168.53C115.631 168.577 115.643 168.666 115.715 168.72L116.713 169.314C116.764 169.34 116.82 169.353 116.877 169.353C116.934 169.353 116.99 169.34 117.04 169.314L119.199 168.072C119.288 168.019 119.276 167.936 119.199 167.882L118.206 167.288C118.154 167.261 118.097 167.246 118.039 167.246C117.981 167.246 117.924 167.261 117.873 167.288Z" fill="#2B303F"/>
<path d="M117.183 166.029L116.143 166.623C116.053 166.67 116.065 166.754 116.143 166.813L117.135 167.407C117.187 167.432 117.244 167.445 117.302 167.445C117.36 167.445 117.416 167.432 117.468 167.407L118.515 166.813C118.598 166.76 118.586 166.676 118.515 166.617L117.516 166.023C117.464 165.998 117.407 165.985 117.349 165.986C117.291 165.987 117.234 166.002 117.183 166.029Z" fill="#2B303F"/>
<path d="M118.657 165.18L117.617 165.774C117.534 165.827 117.54 165.91 117.617 165.97L118.61 166.564C118.661 166.59 118.718 166.603 118.776 166.603C118.834 166.603 118.891 166.59 118.943 166.564L119.989 165.97C120.072 165.922 120.061 165.839 119.989 165.779L118.99 165.185C118.939 165.16 118.882 165.146 118.825 165.145C118.767 165.144 118.71 165.156 118.657 165.18Z" fill="#2B303F"/>
<path d="M120.132 164.33L119.091 164.924C119.008 164.972 119.014 165.061 119.091 165.114L120.084 165.708C120.135 165.736 120.193 165.75 120.251 165.75C120.309 165.75 120.366 165.736 120.417 165.708L121.464 165.114C121.547 165.067 121.535 164.978 121.464 164.924L120.465 164.33C120.413 164.305 120.356 164.292 120.298 164.292C120.241 164.292 120.184 164.305 120.132 164.33Z" fill="#2B303F"/>
<path d="M121.612 163.481L120.566 164.075C120.483 164.122 120.495 164.211 120.566 164.265L121.565 164.859C121.616 164.883 121.672 164.896 121.728 164.896C121.785 164.896 121.841 164.883 121.892 164.859L122.938 164.265C123.021 164.217 123.009 164.128 122.938 164.075L121.939 163.481C121.889 163.453 121.833 163.439 121.776 163.439C121.719 163.439 121.662 163.453 121.612 163.481Z" fill="#2B303F"/>
<path d="M123.069 162.625L122.023 163.219C121.939 163.267 121.951 163.35 122.023 163.409L123.021 164.003C123.072 164.028 123.128 164.041 123.185 164.041C123.241 164.041 123.297 164.028 123.348 164.003L124.395 163.409C124.478 163.356 124.466 163.273 124.395 163.213L123.396 162.619C123.345 162.594 123.289 162.582 123.232 162.583C123.175 162.584 123.119 162.598 123.069 162.625Z" fill="#2B303F"/>
<path d="M124.561 161.776L123.515 162.37C123.432 162.417 123.443 162.501 123.515 162.56L124.514 163.154C124.565 163.18 124.622 163.194 124.68 163.194C124.738 163.194 124.795 163.18 124.847 163.154L125.887 162.56C125.97 162.512 125.964 162.429 125.887 162.37L124.894 161.776C124.843 161.75 124.786 161.736 124.728 161.736C124.67 161.736 124.613 161.75 124.561 161.776Z" fill="#2B303F"/>
<path d="M126.042 160.926L124.995 161.52C124.912 161.574 124.924 161.657 124.995 161.716L125.994 162.31C126.046 162.337 126.103 162.35 126.16 162.35C126.218 162.35 126.275 162.337 126.327 162.31L127.367 161.716C127.451 161.669 127.445 161.586 127.367 161.526L126.375 160.932C126.323 160.907 126.266 160.893 126.209 160.892C126.151 160.891 126.094 160.903 126.042 160.926Z" fill="#2B303F"/>
<path d="M127.51 160.077L126.464 160.671C126.38 160.719 126.392 160.808 126.464 160.861L127.463 161.455C127.514 161.483 127.571 161.497 127.629 161.497C127.687 161.497 127.744 161.483 127.795 161.455L128.836 160.861C128.919 160.814 128.913 160.725 128.836 160.671L127.843 160.077C127.791 160.051 127.734 160.037 127.677 160.037C127.619 160.037 127.562 160.051 127.51 160.077Z" fill="#2B303F"/>
<path d="M129.014 159.228L127.968 159.822C127.885 159.869 127.897 159.958 127.968 160.012L128.967 160.606C129.019 160.631 129.076 160.643 129.133 160.643C129.191 160.643 129.248 160.631 129.3 160.606L130.34 160.012C130.429 159.964 130.417 159.875 130.34 159.822L129.347 159.228C129.296 159.2 129.239 159.186 129.181 159.186C129.123 159.186 129.065 159.2 129.014 159.228Z" fill="#2B303F"/>
<path d="M130.459 158.372L129.418 158.966C129.329 159.014 129.341 159.097 129.418 159.156L130.411 159.75C130.463 159.775 130.52 159.788 130.578 159.788C130.635 159.788 130.692 159.775 130.744 159.75L131.785 159.156C131.874 159.103 131.862 159.02 131.785 158.96L130.792 158.366C130.74 158.341 130.682 158.329 130.625 158.33C130.567 158.331 130.51 158.345 130.459 158.372Z" fill="#2B303F"/>
<path d="M131.933 157.523L130.893 158.117C130.804 158.17 130.816 158.254 130.893 158.313L131.886 158.907C131.937 158.933 131.994 158.947 132.052 158.947C132.11 158.947 132.167 158.933 132.219 158.907L133.259 158.313C133.348 158.265 133.337 158.182 133.259 158.123L132.266 157.529C132.215 157.503 132.158 157.489 132.101 157.488C132.043 157.487 131.986 157.499 131.933 157.523Z" fill="#2B303F"/>
<path d="M135.233 155.628L132.367 157.279C132.278 157.327 132.29 157.416 132.367 157.469L133.36 158.063C133.411 158.091 133.469 158.105 133.527 158.105C133.585 158.105 133.642 158.091 133.693 158.063L136.565 156.412C136.648 156.365 136.636 156.275 136.565 156.222L135.554 155.628C135.504 155.602 135.449 155.589 135.394 155.589C135.338 155.589 135.283 155.602 135.233 155.628Z" fill="#2B303F"/>
<path d="M115.709 166.914L114.288 167.734C114.204 167.781 114.21 167.865 114.288 167.924L115.281 168.518C115.332 168.543 115.389 168.556 115.447 168.556C115.505 168.556 115.561 168.543 115.613 168.518L117.04 167.698C117.124 167.651 117.112 167.562 117.011 167.508L116.018 166.914C115.97 166.89 115.917 166.878 115.863 166.878C115.81 166.878 115.757 166.89 115.709 166.914Z" fill="#2B303F"/>
<path d="M141.012 158.949L120.061 171.036C119.977 171.084 119.989 171.167 120.061 171.227L120.56 171.512C120.612 171.538 120.669 171.551 120.726 171.551C120.784 171.551 120.841 171.538 120.893 171.512L141.838 159.424C141.928 159.376 141.916 159.293 141.838 159.234L141.345 158.949C141.293 158.922 141.236 158.909 141.179 158.909C141.121 158.909 141.064 158.922 141.012 158.949Z" fill="#2B303F"/>
<path d="M116.499 159.489L116.636 159.566L120.257 161.657L126.69 157.945L126.826 157.867L123.069 155.705L116.499 159.489Z" fill="#BFBFBF"/>
<path d="M116.636 159.566L120.257 161.657L126.69 157.945L123.069 155.86L116.636 159.566Z" fill="#E5E5E5"/>
<path d="M106.178 164.366V164.687C106.178 164.918 106.239 165.145 106.355 165.345C106.471 165.545 106.638 165.711 106.838 165.827L119.597 173.187C119.797 173.304 120.025 173.366 120.257 173.365C120.488 173.364 120.716 173.303 120.917 173.187L143.997 159.869C144.197 159.754 144.364 159.588 144.48 159.388C144.596 159.187 144.657 158.96 144.656 158.729V158.408L120.28 172.486L106.178 164.366Z" fill="#E5E5E5"/>
<path d="M120.625 172.682C120.844 172.766 121.079 172.8 121.312 172.782C121.546 172.763 121.772 172.693 121.975 172.575L144.96 159.317C145.159 159.202 145.331 159.044 145.462 158.855C145.594 158.666 145.682 158.451 145.721 158.224L148.236 143.237C148.241 143.152 148.241 143.067 148.236 142.982C148.236 142.776 148.196 142.571 148.117 142.381C148.039 142.19 147.923 142.017 147.778 141.871L123.907 155.628C123.762 155.715 123.637 155.832 123.54 155.972C123.444 156.111 123.378 156.269 123.348 156.436L120.625 172.682Z" fill="#F4F4F4"/>
<path d="M120.257 172.486L120.411 172.575C120.48 172.615 120.552 172.651 120.625 172.682L123.348 156.454C123.379 156.287 123.444 156.129 123.54 155.989C123.637 155.85 123.762 155.733 123.907 155.646L147.796 141.871C147.699 141.777 147.591 141.695 147.475 141.627L123.539 155.432C123.393 155.519 123.268 155.636 123.172 155.776C123.075 155.915 123.01 156.073 122.98 156.24L120.257 172.486Z" fill="#E5E5E5"/>
<path opacity="0.4" d="M240.472 297C253.544 297 264.14 290.886 264.14 283.344C264.14 275.802 253.544 269.688 240.472 269.688C227.4 269.688 216.803 275.802 216.803 283.344C216.803 290.886 227.4 297 240.472 297Z" fill="#D6D8E5"/>
<path d="M259.658 179.56C259.925 181.936 262.743 192.088 262.137 195.569C261.53 199.049 251.917 204.882 251.917 204.882L250.585 198.942L255.936 193.727L254.461 183.825L259.658 179.56Z" fill="#FFCEA9"/>
<path d="M252.22 169.539C253.155 169.105 254.217 169.03 255.204 169.328C256.19 169.626 257.033 170.276 257.571 171.155C258.986 173.496 260.454 181.526 260.591 182.899C260.591 182.899 258.605 185.637 255.627 185.179L252.22 169.539Z" fill="#EDEDED"/>
<path d="M241.233 282.934C239.14 283.514 236.902 283.243 235.008 282.18C233.51 282.227 225.371 278.746 224.265 281.669C223.296 284.229 226.821 286.599 228.706 287.056C232.814 288.048 235.84 290.098 237.505 290.442C238.736 290.704 240.329 290.876 241.31 289.908C242.487 288.749 242.386 284.461 241.233 282.934Z" fill="#38226D"/>
<path d="M237.505 289.735C235.858 289.391 232.814 287.359 228.706 286.344C227.124 285.963 224.407 284.235 224.134 282.186C223.765 284.562 226.946 286.635 228.706 287.062C232.814 288.054 235.84 290.104 237.505 290.448C238.736 290.71 240.329 290.882 241.31 289.914C241.563 289.632 241.748 289.297 241.851 288.933C241.239 289.396 240.528 289.71 239.773 289.849C239.019 289.988 238.242 289.949 237.505 289.735Z" fill="#9C73FF"/>
<path d="M254.461 277.012C252.369 277.59 250.132 277.321 248.236 276.263C246.738 276.305 238.599 272.824 237.493 275.747C236.524 278.307 240.05 280.677 241.934 281.134C246.043 282.126 249.069 284.175 250.733 284.526C251.97 284.781 253.558 284.954 254.539 283.985C255.686 282.827 255.585 278.538 254.461 277.012Z" fill="#38226D"/>
<path d="M250.704 283.813C249.057 283.469 246.013 281.437 241.905 280.421C240.323 280.041 237.606 278.319 237.333 276.263C236.964 278.639 240.145 280.707 241.905 281.134C246.013 282.126 249.039 284.176 250.704 284.526C251.94 284.781 253.528 284.954 254.509 283.985C254.762 283.704 254.947 283.369 255.05 283.005C254.439 283.469 253.727 283.784 252.973 283.924C252.218 284.064 251.441 284.026 250.704 283.813Z" fill="#9C73FF"/>
<path d="M254.592 254.921C254.244 251.899 253.615 248.916 252.713 246.011C252.713 246.011 253.278 238.325 253.558 231.036C253.879 222.768 256.744 215.491 254.479 208.892L228.944 214.565C228.944 214.565 230.49 247.532 230.834 251.523C231.022 254.625 231.403 257.712 231.976 260.766C233.165 267.163 235.038 282.388 235.038 282.388C237.737 283.956 241.28 283.089 241.28 283.089C241.28 283.089 241.09 263.837 240.912 259.228C240.704 253.596 240.531 254.024 240.531 254.024L241.382 240.018L241.934 233.044C241.934 233.044 242.642 238.164 243.124 242.738C243.522 246.724 244.485 250.329 245.561 257.754C246.495 264.193 248.011 277.131 248.011 277.131C250.71 278.705 254.378 277.398 254.378 277.398C254.378 277.398 255.323 260.505 254.592 254.921Z" fill="#48A4F3"/>
<path d="M250.894 169.676C248.95 169.771 247.505 170.27 247.261 169.676C247.051 168.674 246.902 167.661 246.816 166.641C247.041 166.076 247.232 165.453 247.232 165.453C249.675 163.95 250.448 161.295 250.769 158.242C251.316 152.991 248.474 148.399 243.225 147.847C238.284 147.336 234.651 150.817 233.682 155.569C233.159 157.945 232.119 162.364 233.528 166.261C234.312 168.423 235.311 170.139 236.334 170.472C237.313 170.447 238.29 170.362 239.259 170.217C239.259 170.217 239.521 171.678 239.705 172.593C239.889 173.507 239.812 174.024 237.951 175.171C236.09 176.317 240.769 178.681 243.831 178.443C246.893 178.206 250.299 176.418 251.239 174.416C252.291 172.212 252.202 169.611 250.894 169.676Z" fill="#FFCEA9"/>
<path d="M248.052 169.967C248.587 171.304 247.22 172.937 243.569 174.095C239.919 175.254 239.586 173.769 239.586 173.769C239.586 173.769 234.235 176.204 232.487 177.422C230.299 178.954 229.324 183.362 229.027 190.864C228.688 199.519 228.658 212.355 228.944 214.571C228.944 214.571 233.04 218.651 238.284 218.224C243.528 217.796 252.351 213.157 254.491 209.575C254.432 201.99 253.54 200.754 254.77 196.382C257.589 186.373 259.069 182.275 257.701 175.622C256.572 170.139 254.99 169.462 252.826 169.516C251.228 169.581 249.634 169.732 248.052 169.967Z" fill="#F4F4F4"/>
<path d="M220.787 198.016C225.091 199.103 226.102 196.388 226.667 194.149C228.034 188.714 228.771 183.807 229.794 180.718C230.983 177.083 232.255 176.507 234.021 175.794C236.102 174.963 237.886 176.715 237.196 181.348C236.375 186.825 235.305 190.668 233.254 197.149C232.719 198.841 231.518 201.847 229.723 203.302C227.499 205.084 224.158 205.019 219.098 203.76C216.94 203.225 214.574 201.936 210.495 200.035C209.401 199.525 208.545 199.186 206.447 198.206C204.348 197.226 202.154 195.592 201.054 194C199.954 192.408 199.806 191.624 200.031 191.292C200.311 190.834 200.81 190.935 201.399 191.607C202.248 192.742 203.297 193.712 204.496 194.47C204.496 194.47 203.135 193.068 202.398 192.159C201.738 191.348 201.191 190.453 200.769 189.498C200.382 188.571 201.185 187.312 201.791 187.971C202.398 188.631 202.695 189.308 203.807 190.638C204.391 191.351 205.059 191.989 205.798 192.539C205.108 191.599 204.494 190.606 203.961 189.569C203.485 188.763 203.252 187.837 203.29 186.902C203.319 186.415 204.009 185.839 204.651 186.759C205.246 187.585 205.614 188.88 206.964 190.288C207.945 191.304 208.783 191.892 208.807 191.607C208.831 191.321 208.212 190.769 207.862 189.581C207.511 188.393 207.862 187.14 208.521 187.003C209.181 186.866 209.051 186.902 209.574 188.013C210.097 189.124 210.911 189.943 211.53 191.577C211.867 192.721 212.479 193.765 213.313 194.618C214.36 195.747 216.696 196.988 220.787 198.016Z" fill="#FFCEA9"/>
<path d="M235.614 175.052C232.743 174.63 230.716 175.919 229.443 180.273C228.171 184.627 227.291 188.191 227.291 188.191C228.426 189.831 230.148 190.972 232.101 191.381C235.537 192.212 236.774 190.573 236.774 190.573C236.774 190.573 237.731 186.017 238.326 182.916C238.92 179.816 239.17 175.574 235.614 175.052Z" fill="#EDEDED"/>
<path d="M233.819 154.909C233.819 154.909 229.277 148.019 239.116 146.593C246.209 145.583 250.769 150.157 251.292 155.076C251.798 159.798 248.885 164.698 246.786 166.647C245.763 167.009 243.552 167.241 240.656 165.904C240.538 164.619 240.493 163.328 240.519 162.037C240.519 162.037 243.98 154.784 233.819 154.909Z" fill="#3A2C6D"/>
<path d="M141.999 130.983C147.771 130.983 152.451 126.308 152.451 120.54C152.451 114.773 147.771 110.098 141.999 110.098C136.226 110.098 131.547 114.773 131.547 120.54C131.547 126.308 136.226 130.983 141.999 130.983Z" fill="#48A4F3"/>
<path d="M141.999 125.482C138.033 125.482 134.193 124.58 131.464 123C129.187 121.687 127.896 120.03 127.896 118.461C127.896 116.893 129.204 115.236 131.464 113.923C134.193 112.343 138.004 111.44 141.999 111.44C145.994 111.44 149.799 112.349 152.534 113.923C154.811 115.236 156.101 116.893 156.101 118.461C156.101 120.03 154.799 121.687 152.534 123C149.823 124.58 145.958 125.482 141.999 125.482Z" fill="#B7C0EE"/>
<path d="M141.999 123.683C138.033 123.683 134.193 122.78 131.464 121.206C129.187 119.893 127.896 118.236 127.896 116.668C127.896 115.099 129.204 113.442 131.464 112.123C134.193 110.549 138.004 109.646 141.999 109.646C145.994 109.646 149.799 110.549 152.534 112.123C154.811 113.442 156.101 115.093 156.101 116.668C156.101 118.242 154.799 119.893 152.534 121.206C149.823 122.78 145.958 123.683 141.999 123.683Z" fill="#48A4F3"/>
<path d="M141.999 122.061C136.862 122.061 131.892 120.873 128.325 118.848C125.352 117.143 123.681 114.998 123.681 112.961C123.681 110.924 125.37 108.803 128.325 107.08C131.862 105.037 136.838 103.867 141.999 103.867C147.159 103.867 152.106 105.055 155.673 107.08C158.646 108.779 160.323 110.924 160.323 112.961C160.323 114.998 158.628 117.119 155.673 118.848C152.112 120.891 147.136 122.061 141.999 122.061Z" fill="#B7C0EE"/>
<path d="M141.999 119.733C136.862 119.733 131.892 118.545 128.325 116.519C125.352 114.82 123.681 112.67 123.681 110.638C123.681 108.607 125.37 106.48 128.325 104.752C131.862 102.709 136.838 101.538 141.999 101.538C147.159 101.538 152.106 102.726 155.673 104.752C158.646 106.457 160.323 108.601 160.323 110.638C160.323 112.676 158.628 114.796 155.673 116.519C152.112 118.562 147.136 119.733 141.999 119.733Z" fill="#48A4F3"/>
<path d="M141.999 117.564C135.732 117.564 129.668 116.139 125.352 113.65C121.755 111.571 119.692 108.957 119.692 106.474C119.692 103.992 121.755 101.378 125.352 99.3049C129.668 96.8161 135.732 95.3845 141.999 95.3845C148.265 95.3845 154.324 96.8161 158.646 99.3049C162.243 101.378 164.306 103.992 164.306 106.474C164.306 108.957 162.243 111.571 158.646 113.65C154.33 116.139 148.259 117.564 141.999 117.564Z" fill="#B7C0EE"/>
<path d="M141.999 114.725C135.732 114.725 129.668 113.3 125.352 110.811C121.755 108.738 119.692 106.118 119.692 103.635C119.692 101.152 121.755 98.5387 125.352 96.4656C129.668 93.9767 135.732 92.5511 141.999 92.5511C148.265 92.5511 154.324 93.9767 158.646 96.4656C162.243 98.5387 164.306 101.158 164.306 103.641C164.306 106.124 162.243 108.738 158.646 110.811C154.33 113.3 148.259 114.725 141.999 114.725Z" fill="#48A4F3"/>
<path d="M141.999 111.797C134.805 111.797 127.843 110.163 122.885 107.3C118.753 104.924 116.386 101.919 116.386 99.0673C116.386 96.2161 118.764 93.2164 122.885 90.8285C127.837 87.9714 134.805 86.3379 141.993 86.3379C149.181 86.3379 156.155 87.9714 161.107 90.8345C165.239 93.2105 167.606 96.2161 167.606 99.0673C167.606 101.919 165.227 104.918 161.107 107.3C156.155 110.163 149.187 111.797 141.999 111.797Z" fill="#B7C0EE"/>
<path d="M141.999 108.542C134.805 108.542 127.843 106.902 122.885 104.045C118.753 101.669 116.386 98.6634 116.386 95.8122C116.386 92.961 118.764 89.9554 122.885 87.5734C127.837 84.7163 134.805 83.0768 141.993 83.0768C149.181 83.0768 156.155 84.7163 161.107 87.5734C165.239 89.9494 167.606 92.961 167.606 95.8122C167.606 98.6634 165.227 101.663 161.107 104.045C156.155 106.92 149.187 108.542 141.999 108.542Z" fill="#48A4F3"/>
<path d="M141.999 106.118C157.904 106.118 170.798 98.6796 170.798 89.5039C170.798 80.3281 157.904 72.8897 141.999 72.8897C126.093 72.8897 113.2 80.3281 113.2 89.5039C113.2 98.6796 126.093 106.118 141.999 106.118Z" fill="#8EF7F7"/>
<path d="M134.65 48.5654H132.1V88.1793H134.65V48.5654Z" fill="#D8AA44"/>
<path d="M152.112 48.5654H149.561V88.1793H152.112V48.5654Z" fill="#D8AA44"/>
<path d="M141.928 51.1434L138.188 47.722L133.598 50.793L132.1 48.5714L138.438 44.4134L142.07 47.7338L146.422 44.3599L152.112 48.5714L150.334 50.6088L146.416 47.6685L141.928 51.1434Z" fill="#D8AA44"/>
<path opacity="0.69" d="M170.757 90.3712C170.804 86.6408 171.446 75.6281 180.216 60.4514C190.59 42.4948 179.776 0 141.922 0C104.068 0 93.253 42.4948 103.628 60.4514C111.208 73.5728 112.861 85.2152 113.206 90.5375" fill="#81FEFE"/>
<path opacity="0.2" d="M121.957 198.479L120.304 196.935C120.095 196.631 119.842 196.359 119.555 196.127C119.43 196.022 119.297 195.927 119.157 195.842L117.017 194.416L114.68 193.383C114.537 193.316 114.39 193.259 114.24 193.21C113.896 193.096 113.538 193.028 113.176 193.008L110.952 192.284C110.827 192.284 110.899 192.509 110.952 192.604L111.166 192.694C111.434 192.795 111.208 192.759 111.487 192.955L112.766 193.282C113.58 193.251 114.385 193.457 115.084 193.876L116.779 194.725L118.408 195.705C119.124 196.098 119.695 196.71 120.037 197.452L120.899 198.146C121.166 198.396 121.012 198.289 121.41 198.348L121.63 198.539C121.791 198.58 122.029 198.586 121.957 198.479Z" fill="black"/>
<path opacity="0.1" d="M117.308 195.212C117.44 195.009 117.617 194.838 117.825 194.713C118.128 194.528 118.483 194.446 118.836 194.482C119.253 194.524 119.657 194.649 120.025 194.85H120.067L120.661 195.171C120.816 195.254 120.958 195.349 121.101 195.444L121.375 195.646C121.785 195.972 121.666 196.614 121.303 197.125C121.102 197.41 120.871 197.673 120.614 197.909C120.387 198.105 120.115 198.241 119.822 198.305C119.529 198.368 119.224 198.357 118.937 198.271C118.67 198.188 118.413 198.076 118.17 197.939C117.945 197.807 117.732 197.656 117.534 197.487C117.29 197.26 117.122 196.963 117.052 196.637C116.981 196.311 117.013 195.971 117.142 195.664C117.18 195.507 117.236 195.356 117.308 195.212ZM112.403 192.242C112.724 191.749 113.271 191.375 113.735 191.529L114.032 191.642C114.183 191.701 114.329 191.768 114.472 191.844L115.013 192.123H115.049C115.389 192.302 115.683 192.556 115.911 192.866C116.004 192.992 116.071 193.135 116.109 193.286C116.147 193.438 116.154 193.596 116.131 193.751C116.095 193.981 116.006 194.198 115.869 194.387C115.758 194.521 115.632 194.642 115.495 194.749C115.246 194.991 114.937 195.165 114.6 195.251C114.263 195.338 113.91 195.334 113.574 195.242C113.335 195.166 113.104 195.067 112.885 194.945C112.672 194.814 112.473 194.663 112.29 194.493C112.1 194.316 111.968 194.086 111.912 193.833C111.856 193.579 111.878 193.314 111.975 193.074C112.086 192.783 112.23 192.506 112.403 192.248V192.242Z" fill="black"/>
<path d="M111.773 192.967L113.045 192.848C113.851 192.768 114.662 192.93 115.376 193.311L122.397 196.834L122.807 196.24L114.948 192.777C114.475 192.556 113.964 192.429 113.443 192.402L110.946 192.26C110.919 192.255 110.891 192.259 110.865 192.27C110.84 192.282 110.819 192.301 110.805 192.325C110.791 192.348 110.784 192.376 110.786 192.404C110.788 192.432 110.798 192.458 110.816 192.48L110.881 192.569C110.984 192.705 111.12 192.813 111.276 192.883C111.431 192.952 111.603 192.981 111.773 192.967Z" fill="#2B303F"/>
<path d="M120.857 198.051L120.328 196.863C119.987 196.122 119.418 195.509 118.705 195.111L112.29 191.274L112.653 190.721L119.436 195.23C119.887 195.516 120.275 195.889 120.578 196.329L122.034 198.455C122.106 198.562 121.999 198.699 121.856 198.675H121.731C121.545 198.653 121.367 198.584 121.214 198.475C121.062 198.366 120.939 198.22 120.857 198.051Z" fill="#2B303F"/>
<path opacity="0.3" d="M118.955 194.238C119.371 194.279 119.775 194.402 120.144 194.6H120.179L120.774 194.915C120.929 195.004 121.071 195.093 121.214 195.188C121.357 195.283 121.398 195.325 121.487 195.396C121.892 195.717 121.773 196.365 121.416 196.869C121.217 197.158 120.983 197.421 120.72 197.654C120.497 197.853 120.226 197.991 119.933 198.056C119.641 198.12 119.337 198.109 119.05 198.022C118.784 197.933 118.527 197.82 118.283 197.683C118.055 197.556 117.842 197.405 117.647 197.232C117.402 197.006 117.233 196.71 117.163 196.385C117.092 196.06 117.124 195.721 117.254 195.414C117.299 195.248 117.365 195.088 117.451 194.939C117.584 194.737 117.761 194.567 117.968 194.44C118.266 194.268 118.613 194.197 118.955 194.238Z" fill="url(#paint0_linear)"/>
<path d="M112.462 190.597L112.153 191.084C112.127 191.112 112.113 191.149 112.113 191.188C112.113 191.226 112.127 191.263 112.153 191.292C112.206 191.339 112.242 191.403 112.255 191.473C112.268 191.542 112.257 191.615 112.225 191.678L111.713 192.747C111.564 193.05 111.517 193.393 111.579 193.725C111.641 194.057 111.809 194.36 112.058 194.588C112.49 194.973 113.002 195.259 113.556 195.426C113.969 195.552 114.409 195.563 114.828 195.459C115.247 195.354 115.629 195.137 115.934 194.832L116.41 194.351C116.515 194.249 116.579 194.111 116.588 193.965C116.598 193.9 116.622 193.838 116.66 193.784C116.698 193.731 116.748 193.687 116.806 193.656C116.864 193.626 116.928 193.609 116.994 193.608C117.059 193.607 117.124 193.621 117.183 193.65L117.302 193.709L117.421 193.781C117.469 193.816 117.508 193.862 117.533 193.916C117.558 193.97 117.57 194.03 117.565 194.089C117.561 194.149 117.542 194.206 117.509 194.256C117.477 194.306 117.432 194.347 117.379 194.375C117.246 194.445 117.139 194.558 117.076 194.695L116.808 195.289C116.64 195.667 116.598 196.089 116.689 196.493C116.78 196.896 116.999 197.26 117.314 197.529C117.768 197.929 118.3 198.23 118.877 198.414C119.247 198.533 119.643 198.547 120.02 198.453C120.397 198.36 120.741 198.163 121.012 197.885L121.904 196.947C121.963 196.887 122.038 196.845 122.119 196.824C122.201 196.803 122.287 196.804 122.367 196.828C122.41 196.843 122.457 196.844 122.501 196.831C122.544 196.818 122.583 196.792 122.611 196.757L122.974 196.258C123.012 196.213 123.032 196.156 123.032 196.097C123.032 196.039 123.012 195.982 122.974 195.937C122.406 195.373 121.752 194.904 121.036 194.547L120.441 194.226C120.001 193.987 119.518 193.837 119.02 193.787L118.58 193.739C118.482 193.744 118.386 193.71 118.313 193.644C118.269 193.583 118.212 193.532 118.146 193.495L117.659 193.234L117.171 192.967C117.101 192.931 117.024 192.911 116.945 192.907C116.889 192.906 116.833 192.892 116.783 192.866C116.732 192.84 116.688 192.804 116.654 192.759L116.416 192.438C116.141 192.071 115.785 191.772 115.376 191.565L114.835 191.28C114.195 190.901 113.495 190.634 112.766 190.49C112.71 190.478 112.652 190.482 112.599 190.501C112.546 190.52 112.498 190.553 112.462 190.597ZM117.427 194.975C117.561 194.773 117.737 194.602 117.944 194.476C118.247 194.29 118.602 194.211 118.955 194.25C119.371 194.291 119.775 194.414 120.144 194.612H120.179L120.774 194.927C120.929 195.016 121.071 195.105 121.214 195.2C121.357 195.295 121.398 195.337 121.487 195.408C121.892 195.729 121.773 196.376 121.416 196.881C121.217 197.17 120.983 197.433 120.721 197.665C120.497 197.865 120.226 198.003 119.933 198.068C119.641 198.132 119.337 198.12 119.05 198.034C118.784 197.945 118.527 197.832 118.283 197.695C118.055 197.568 117.842 197.417 117.647 197.244C117.402 197.018 117.233 196.722 117.163 196.397C117.092 196.072 117.124 195.732 117.254 195.426C117.293 195.269 117.351 195.117 117.427 194.975ZM112.516 192.005C112.843 191.517 113.384 191.143 113.854 191.298C113.955 191.328 114.054 191.364 114.151 191.405C114.3 191.464 114.448 191.535 114.591 191.607L115.132 191.892H115.168C115.505 192.074 115.799 192.328 116.03 192.634C116.123 192.761 116.189 192.905 116.226 193.058C116.263 193.211 116.269 193.37 116.244 193.525C116.21 193.753 116.12 193.97 115.982 194.155C115.873 194.292 115.747 194.416 115.607 194.523C115.358 194.765 115.05 194.938 114.713 195.024C114.376 195.111 114.023 195.108 113.687 195.016C113.449 194.94 113.22 194.838 113.003 194.713C112.789 194.587 112.59 194.438 112.409 194.268C112.219 194.089 112.087 193.858 112.031 193.603C111.975 193.349 111.997 193.084 112.094 192.842C112.206 192.551 112.347 192.273 112.516 192.01V192.005Z" fill="#2B303F"/>
<path d="M115.56 194.618C115.312 194.862 115.003 195.036 114.666 195.122C114.329 195.209 113.975 195.205 113.64 195.111C113.405 195.042 113.177 194.948 112.962 194.832C112.747 194.708 112.547 194.558 112.367 194.386C112.177 194.209 112.045 193.979 111.989 193.726C111.933 193.472 111.955 193.207 112.052 192.967C112.169 192.666 112.319 192.38 112.498 192.111C112.334 192.362 112.196 192.628 112.088 192.907C111.991 193.149 111.969 193.414 112.025 193.669C112.081 193.923 112.213 194.155 112.403 194.333C112.584 194.503 112.783 194.653 112.998 194.778C113.214 194.903 113.443 195.005 113.681 195.081C114.017 195.173 114.37 195.176 114.707 195.09C115.044 195.003 115.352 194.83 115.602 194.588C115.739 194.482 115.865 194.36 115.976 194.226L115.935 194.238C115.826 194.38 115.7 194.508 115.56 194.618Z" fill="#1F232D"/>
<path d="M120.643 197.766C120.419 197.965 120.148 198.102 119.855 198.166C119.563 198.229 119.259 198.216 118.973 198.129C118.706 198.045 118.449 197.934 118.206 197.796C117.981 197.665 117.768 197.514 117.57 197.345C117.326 197.117 117.157 196.82 117.087 196.494C117.017 196.168 117.048 195.829 117.177 195.521C117.224 195.358 117.29 195.2 117.373 195.052L117.421 194.986C117.339 195.133 117.275 195.288 117.231 195.45C117.101 195.756 117.069 196.095 117.139 196.421C117.209 196.746 117.378 197.042 117.623 197.267C117.818 197.44 118.032 197.592 118.259 197.719C118.504 197.856 118.76 197.969 119.026 198.057C119.313 198.144 119.617 198.156 119.91 198.091C120.202 198.027 120.473 197.888 120.697 197.689C120.938 197.474 121.155 197.233 121.345 196.97C121.144 197.263 120.909 197.531 120.643 197.766Z" fill="#1F232D"/>
<path opacity="0.3" d="M116.03 192.658C115.799 192.351 115.505 192.098 115.168 191.916H115.132L114.591 191.63C114.448 191.559 114.3 191.488 114.151 191.428C114.054 191.388 113.955 191.352 113.854 191.322C113.384 191.167 112.843 191.541 112.516 192.028C112.338 192.297 112.188 192.584 112.07 192.884C111.973 193.125 111.951 193.391 112.007 193.645C112.064 193.899 112.195 194.131 112.385 194.309C112.566 194.479 112.766 194.629 112.98 194.755C113.196 194.88 113.425 194.981 113.663 195.058C113.999 195.15 114.352 195.153 114.689 195.066C115.026 194.98 115.334 194.807 115.584 194.565C115.723 194.458 115.849 194.334 115.958 194.196C116.096 194.011 116.186 193.795 116.22 193.567C116.251 193.41 116.25 193.249 116.217 193.093C116.185 192.937 116.121 192.789 116.03 192.658Z" fill="url(#paint1_linear)"/>
<defs>
<linearGradient id="paint0_linear" x1="119.418" y1="194.238" x2="119.418" y2="198.135" gradientUnits="userSpaceOnUse">
<stop offset="0.01" stop-color="white"/>
<stop offset="0.88" stop-color="white" stop-opacity="0"/>
</linearGradient>
<linearGradient id="paint1_linear" x1="930.769" y1="1428.62" x2="930.769" y2="1453.55" gradientUnits="userSpaceOnUse">
<stop offset="0.01" stop-color="white"/>
<stop offset="0.88" stop-color="white" stop-opacity="0"/>
</linearGradient>
</defs>
</svg>
