<svg width="383" height="489" viewBox="0 0 383 489" fill="none" xmlns="http://www.w3.org/2000/svg">
<g clip-path="url(#clip0)">
<path d="M103.676 0.00739794C101.203 0.0836567 98.5402 0.997267 95.5181 3.37923C88.1199 0.527752 80.9417 -0.463612 74.5249 5.34252C64.6163 4.05808 61.3967 6.7092 58.9566 9.80441C56.7812 9.75955 42.6806 7.56898 36.213 17.2105C19.9624 15.2891 14.8263 26.7638 20.6461 37.4654C17.3263 42.6002 13.8867 47.6736 21.6485 57.4647C18.9031 62.9164 20.6057 68.8317 27.0733 75.9896C25.3678 83.6558 28.722 89.0627 34.7408 93.2779C33.6142 103.767 44.3652 109.866 47.5743 112.039C48.8071 118.15 51.3759 123.919 63.6543 127.107C65.68 136.216 73.0587 137.789 80.2056 139.7C56.5868 153.422 36.3326 171.475 36.4703 215.772L33.0098 221.94C5.92752 238.4 -18.4379 291.305 19.6647 334.306C22.1527 347.767 26.3268 357.435 30.0431 368.135C35.601 411.253 71.8768 431.444 81.4458 433.832C95.4657 444.505 110.398 454.632 130.607 461.727C149.654 481.362 170.291 488.846 191.041 488.834C191.346 488.834 233.346 481.363 252.396 461.727C272.602 454.632 287.534 444.505 301.557 433.832C311.123 431.444 347.399 411.253 352.957 368.135C356.673 357.435 360.847 347.767 363.337 334.306C401.436 291.301 377.072 238.394 349.992 221.934L346.525 215.766C346.663 171.473 326.409 153.419 302.79 139.694C309.935 137.783 317.317 136.21 319.34 127.101C331.618 123.911 334.188 118.144 335.42 112.033C338.63 109.86 349.38 103.761 348.256 93.2719C354.272 89.0567 357.628 83.6483 355.921 75.9836C362.39 68.8257 364.091 62.9104 361.346 57.4572C369.11 47.6721 365.665 42.5987 362.349 37.4639C368.166 26.7623 363.033 15.2861 346.777 17.209C340.313 7.56748 326.214 9.75656 324.033 9.80142C321.594 6.7077 318.375 4.05659 308.466 5.34103C302.049 -0.465107 294.874 0.524761 287.473 3.37774C278.685 -3.55284 272.871 2.00209 266.228 4.10294C255.588 0.627935 253.154 5.38738 247.927 7.32675C236.323 4.876 232.797 10.2111 227.236 15.8423L220.764 15.7137C203.262 26.0221 194.567 47.0127 191.485 57.8041C188.403 47.0112 179.727 26.0206 162.229 15.7137L155.758 15.8423C150.188 10.2111 146.664 4.876 135.06 7.32675C129.831 5.38738 127.407 0.627935 116.758 4.10294C112.399 2.7243 108.389 -0.140634 103.669 0.00590267L-16.457 210.833" fill="black"/>
<path d="M68.8324 45.3576C115.265 69.2834 142.259 88.6382 157.048 105.122C149.475 135.46 109.966 136.844 95.5197 135.993C98.4775 134.618 100.946 132.968 101.821 130.437C98.1963 127.862 85.3433 130.165 76.3698 125.127C79.8168 124.413 81.4295 123.717 83.0408 121.175C74.564 118.473 65.4318 116.144 60.0608 111.667C62.9588 111.703 65.6652 112.316 69.4503 109.692C61.8576 105.602 53.7548 102.36 47.4592 96.1086C51.385 96.0129 55.6174 96.0697 56.8487 94.6268C49.8994 90.3234 44.0347 85.5385 39.1814 80.3036C44.675 80.966 46.9954 80.3963 48.324 79.4393C43.0697 74.0608 36.4211 69.5197 33.2508 62.8926C37.3292 64.2982 41.0619 64.8365 43.7519 62.77C41.9671 58.7448 34.3191 56.3703 29.9146 46.9635C34.2098 47.3807 38.7639 47.8996 39.6751 46.9635C37.6823 38.8472 34.2622 34.2836 30.908 29.5556C40.0985 29.4195 54.0241 29.5915 53.3942 28.8154L47.7106 23.0123C56.6886 20.5959 65.8747 23.3996 72.5442 25.481C75.5379 23.12 72.4904 20.1339 68.8369 17.085C76.467 18.1033 83.361 19.8558 89.5937 22.2706C92.9225 19.2666 87.4319 16.2611 84.7748 13.2571C96.5625 15.4911 101.556 18.6326 106.519 21.7772C110.12 18.3276 106.725 15.3954 104.296 12.3929C113.184 15.6825 117.762 19.9305 122.581 24.1233C124.215 21.9192 126.733 20.3029 123.693 14.9857C130.003 18.6207 134.756 22.9046 138.272 27.7044C142.177 25.2193 140.599 21.8221 140.619 18.6895C147.178 24.0216 151.34 29.6962 156.435 35.2361C157.461 34.4885 158.359 31.957 159.153 27.9512C174.798 43.1207 196.906 81.3323 164.835 96.4824C137.542 73.9846 104.945 57.6308 68.822 45.3636L68.8324 45.3576V45.3576ZM315.206 45.3576C268.779 69.2864 241.785 88.6352 226.998 105.122C234.571 135.46 274.079 136.844 288.525 135.993C285.567 134.618 283.098 132.968 282.225 130.437C285.85 127.862 298.703 130.165 307.675 125.127C304.228 124.413 302.616 123.717 301.004 121.175C309.482 118.473 318.614 116.144 323.984 111.667C321.086 111.703 318.379 112.316 314.594 109.692C322.188 105.602 330.291 102.36 336.587 96.1086C332.66 96.0129 328.427 96.0697 327.197 94.6268C334.147 90.3234 340.011 85.5385 344.865 80.3036C339.37 80.966 337.051 80.3963 335.722 79.4393C340.975 74.0608 347.625 69.5197 350.795 62.8926C346.715 64.2982 342.983 64.8365 340.293 62.77C342.077 58.7448 349.727 56.3703 354.13 46.9635C349.836 47.3807 345.281 47.8996 344.369 46.9635C346.367 38.8442 349.787 34.2806 353.141 29.5526C343.951 29.4165 330.025 29.5885 330.655 28.8124L336.338 23.0078C327.36 20.5929 318.174 23.3966 311.505 25.478C308.511 23.117 311.557 20.1309 315.211 17.082C307.582 18.0988 300.687 19.8528 294.455 22.2676C291.125 19.2636 296.617 16.2582 299.274 13.2542C287.487 15.4881 282.493 18.6297 277.529 21.7742C273.927 18.3246 277.324 15.3924 279.753 12.3899C270.865 15.6795 266.287 19.9276 261.468 24.1203C259.833 21.9163 257.316 20.2999 260.355 14.9827C254.046 18.6177 249.293 22.9016 245.777 27.7015C241.872 25.2163 243.45 21.8176 243.43 18.6865C236.871 24.0186 232.709 29.6917 227.614 35.2331C226.588 34.4855 225.69 31.954 224.896 27.9467C209.251 43.1177 187.144 81.3293 219.214 96.4794C246.492 73.9756 279.087 57.6248 315.212 45.3576H315.206" fill="#75A928"/>
<path d="M248.251 354.279C248.413 382.589 223.642 405.659 192.925 405.808C162.208 405.957 137.175 383.129 137.013 354.819C137.012 354.639 137.012 354.459 137.013 354.279C136.852 325.97 161.621 302.9 192.339 302.75C223.057 302.601 248.088 325.429 248.251 353.739V354.279V354.279ZM160.45 207.849C183.496 222.94 187.65 257.146 169.729 284.249C151.807 311.354 118.597 321.094 95.5507 306.004C72.5049 290.912 68.3517 256.707 86.2719 229.603C104.194 202.499 137.404 192.758 160.45 207.849ZM222.651 205.117C199.607 220.207 195.452 254.414 213.373 281.518C231.294 308.622 264.505 318.363 287.55 303.271C310.596 288.181 314.751 253.975 296.829 226.87C278.909 199.767 245.699 190.026 222.651 205.117ZM45.2685 232.521C70.15 225.855 53.6691 335.4 33.4239 326.412C11.1546 308.51 3.9823 256.085 45.2685 232.521V232.521ZM332.81 231.155C307.926 224.491 324.41 334.04 344.655 325.052C366.924 307.15 374.096 254.718 332.81 231.155ZM248.27 149.578C291.21 142.332 326.94 167.829 325.497 214.365C324.085 232.207 232.451 152.235 248.27 149.578V149.578ZM129.63 148.213C86.6879 140.965 50.9611 166.468 52.4034 213.001C53.8157 230.841 145.451 150.87 129.63 148.213V148.213ZM191.311 137.36C165.683 136.693 141.087 156.369 141.027 167.783C140.957 181.65 161.291 195.849 191.486 196.209C222.321 196.429 241.997 184.844 242.096 170.533C242.21 154.318 214.052 137.109 191.311 137.359V137.36ZM192.876 421.731C215.22 420.756 245.202 428.923 245.262 439.759C245.633 450.28 218.07 474.052 191.395 473.593C163.768 474.784 136.678 450.975 137.033 442.723C136.618 430.623 170.671 421.176 192.876 421.731V421.731ZM110.346 357.516C126.254 376.671 133.507 410.323 120.23 420.244C107.671 427.818 77.1697 424.699 55.4913 393.572C40.87 367.452 42.7536 340.874 53.0198 333.066C68.3712 323.72 92.0903 336.345 110.347 357.516H110.346ZM272.223 351.444C255.01 371.593 245.426 408.343 257.982 420.18C269.988 429.376 302.217 428.09 326.022 395.076C343.308 372.903 337.517 335.872 327.643 326.039C312.975 314.701 291.918 329.212 272.223 351.438V351.444Z" fill="#BC1142"/>
</g>
<defs>
<clipPath id="clip0">
<rect width="383" height="489" fill="white"/>
</clipPath>
</defs>
</svg>
